<svg xmlns="http://www.w3.org/2000/svg" width="100" height="100" viewBox="0 0 100 100"><g fill-rule="evenodd" clip-rule="evenodd"><path d="M20.574 64.95h11.054c-.673-1.91-1.123-3.93-1.318-6.022h-8.533c-7.975 0-14.44-6.473-14.44-14.456s6.466-14.456 14.44-14.456H43.64c7.976 0 14.44 6.473 14.44 14.456 0 6.49-4.268 11.978-10.146 13.806.824 1.5 2.18 3.69 3.862 5.385C59.568 60.76 65.1 53.266 65.1 44.473c0-11.31-9.158-20.48-20.458-20.48H20.574c-11.3 0-20.458 9.17-20.458 20.48 0 11.312 9.16 20.478 20.458 20.478zM35.015 56.52c0 11.31 9.16 20.48 20.458 20.48H79.54C90.84 77 100 67.83 100 56.52c0-11.312-9.16-20.48-20.458-20.48h-11.07c.676 1.913 1.13 3.93 1.33 6.023h8.737c7.973 0 14.438 6.474 14.438 14.457 0 7.984-6.466 14.457-14.44 14.457H56.68c-7.977 0-14.443-6.473-14.443-14.457 0-6.615 4.437-12.19 10.495-13.908-.447-2.26-1.676-4.238-3.4-5.632-8.296 2.612-14.315 10.372-14.315 19.54z"/></g></svg>