<?xml version="1.0" encoding="utf-8"?>
<!-- Generator: Adobe Illustrator 16.0.0, SVG Export Plug-In . SVG Version: 6.00 Build 0)  -->
<!DOCTYPE svg PUBLIC "-//W3C//DTD SVG 1.1//EN" "http://www.w3.org/Graphics/SVG/1.1/DTD/svg11.dtd">
<svg version="1.1" id="Layer_1" xmlns="http://www.w3.org/2000/svg" xmlns:xlink="http://www.w3.org/1999/xlink" x="0px" y="0px"
	 width="110px" height="50px" viewBox="0 0 110 50" enable-background="new 0 0 110 50" xml:space="preserve">
<g>
	<g>
		<path fill="#FFFFFF" d="M15.251,20.98c-0.946,0-2.304,0.343-3.219,0.749c-0.347,0.125-0.315,0.375-0.221,0.594l0.631,1.28
			c0.095,0.219,0.221,0.25,0.379,0.156c0.6-0.375,1.484-0.937,2.146-0.937c0.757,0,1.167,0.407,1.483,1.093
			c0.284,0.656,0.378,1.562,0.378,2.529v0.312c-0.537-0.312-1.547-0.562-2.051-0.562c-2.62,0-4.072,2.497-4.072,5.12
			c0,2.935,1.704,4.993,3.693,4.993c1.105,0,2.115-0.622,2.777-1.467l0.379,0.938c0.063,0.156,0.126,0.188,0.284,0.188h1.074
			c0.094,0,0.221-0.062,0.221-0.219v-8.272c0-1.998-0.158-3.559-0.695-4.588C17.776,21.605,16.577,20.98,15.251,20.98z
			 M16.829,33.654c-0.537,0.531-1.136,0.78-1.705,0.78c-0.536,0-1.01-0.249-1.357-0.718c-0.41-0.625-0.6-1.499-0.6-2.497
			c0-1.592,0.6-3.184,1.799-3.184c0.599,0,1.325,0.155,1.862,0.654V33.654z M27.014,21.167c-1.452,0-2.967,1.062-2.967,1.062v-0.656
			c0-0.156-0.095-0.25-0.19-0.25h-1.862c-0.095,0-0.221,0.094-0.221,0.25v14.172c0,0.125,0.063,0.219,0.221,0.219h1.862
			c0.095,0,0.19-0.094,0.19-0.219V23.603c0,0,0.883-0.593,1.925-0.593c0.979,0,1.799,0.499,1.799,1.467v11.27
			c0,0.125,0.095,0.219,0.221,0.219h1.862c0.158,0,0.189-0.094,0.189-0.219V23.883C30.043,22.104,28.939,21.167,27.014,21.167z
			 M41.101,14.05h-1.862c-0.158,0-0.221,0.125-0.221,0.25v7.118c-0.726-0.281-1.357-0.437-1.799-0.437
			c-3.03,0-5.019,2.81-5.019,8.241c0,4.589,2.083,7.085,4.577,7.085c1.073,0,1.925-0.593,2.556-1.153l0.411,0.655
			c0.094,0.156,0.189,0.156,0.284,0.156h1.073c0.126,0,0.189-0.094,0.189-0.219V14.3C41.29,14.144,41.227,14.05,41.101,14.05z
			 M39.018,33.966c-0.474,0.251-0.978,0.438-1.578,0.438c-1.988,0-2.809-2.278-2.809-5.65c0-2.965,0.883-5.931,2.682-5.931
			c0.568,0,1.105,0.219,1.705,0.625V33.966z M48.149,20.98c-3.219,0-4.64,3.996-4.64,8.271c0,4.402,1.989,7.055,4.987,7.055
			c0.979,0,2.083-0.218,3.346-0.967c0.095-0.062,0.158-0.125,0.126-0.249l-0.252-1c-0.032-0.156-0.126-0.219-0.252-0.188
			c-1.105,0.249-1.579,0.313-2.178,0.313c-2.272,0-3.377-1.937-3.377-4.526v-0.688c0,0,1.2,0.125,1.862,0.125h4.355v-1.155
			C52.126,23.416,50.485,20.98,48.149,20.98z M47.771,27.317c-0.663,0-1.736,0.125-1.736,0.125s0-0.437,0.031-0.905
			c0.284-2.466,0.916-3.746,1.957-3.746c0.947,0,1.546,1.312,1.704,3.59c0.032,0.406,0.032,0.937,0.032,0.937H47.771z
			 M61.479,21.324h-1.673c-0.158,0-0.252,0.094-0.315,0.25l-1.072,2.778l-0.759,2.091h-0.062l-0.631-1.686l-1.169-3.122
			c-0.062-0.156-0.125-0.312-0.378-0.312h-1.768c-0.284,0-0.347,0.156-0.284,0.344l2.84,6.555l-3.061,7.335
			c-0.095,0.22,0.032,0.407,0.221,0.407h1.578c0.284,0,0.378-0.125,0.473-0.376l1.041-2.839l0.821-2.342h0.031l0.757,1.966
			l1.263,3.279c0.063,0.187,0.19,0.312,0.38,0.312h1.767c0.189,0,0.253-0.188,0.189-0.376l-3.093-7.117c0,0,3.03-6.648,3.125-6.804
			C61.763,21.511,61.731,21.324,61.479,21.324z M64.824,33.123c-0.821,0-1.452,0.688-1.452,1.717c0,1.031,0.6,1.688,1.483,1.688
			c0.946,0,1.452-0.874,1.452-1.688C66.308,33.811,65.739,33.123,64.824,33.123z M12.945,12h-2.048
			c-0.182,0-0.295,0.088-0.321,0.215c-0.026,0.129-3.072,9.314-3.293,10.079c-0.158,0.542-0.669,2.454-0.792,2.914l-1.059-2.86
			c-0.257-0.788-2.724-7.604-2.796-7.876c-0.04-0.15-0.11-0.337-0.375-0.337h-2c-0.195,0-0.306,0.213-0.243,0.344
			c0.05,0.105,3.663,9.61,5.121,13.241v7.983c0,0.146,0.059,0.231,0.207,0.231h1.894c0.117,0,0.205-0.086,0.205-0.231v-7.921
			c1.217-3.36,5.66-15.313,5.708-15.447C13.211,12.172,13.194,12,12.945,12z M76.818,33.834h-5.757V14.589
			c0-0.186-0.062-0.341-0.25-0.341h-1.846c-0.125,0-0.249,0.155-0.249,0.341v21.008c0,0.153,0.062,0.339,0.249,0.339h7.853
			c0.155,0,0.344-0.061,0.344-0.247v-1.607C77.162,33.894,77.005,33.834,76.818,33.834z M82.318,21.086c-3.192,0-4.6,3.96-4.6,8.199
			c0,4.361,1.971,6.99,4.942,6.99c0.971,0,2.064-0.216,3.315-0.959c0.094-0.061,0.156-0.123,0.126-0.247l-0.251-0.988
			c-0.03-0.156-0.125-0.219-0.251-0.188c-1.094,0.247-1.563,0.31-2.158,0.31c-2.251,0-3.346-1.917-3.346-4.485v-0.682
			c0,0,1.188,0.125,1.846,0.125h4.316v-1.145C86.259,23.499,84.632,21.086,82.318,21.086z M81.942,27.367
			c-0.658,0-1.721,0.123-1.721,0.123s0-0.434,0.031-0.897c0.281-2.444,0.907-3.712,1.938-3.712c0.939,0,1.533,1.299,1.689,3.558
			c0.031,0.402,0.031,0.929,0.031,0.929H81.942z M98.926,21.024c-0.281-0.062-0.531-0.062-0.845-0.062
			c-0.906,0-1.97,0.371-2.721,0.928c-0.688-0.495-1.502-0.805-2.409-0.805c-3.253,0-4.473,3.062-4.473,5.879
			c0,1.918,0.751,3.525,2.064,4.394c-0.5,0.525-0.876,1.267-0.876,2.01c0,0.65,0.22,1.27,0.626,1.764
			c-1.689,0.774-2.409,1.98-2.409,3.466c0,2.754,2.159,4.052,4.474,4.052c3.034,0,5.912-1.917,5.912-5.196
			c0-3.003-2.158-3.156-4.005-3.344c-1.5-0.122-2.658-0.307-2.658-1.669c0-0.186,0.031-0.372,0.062-0.619
			c0.376,0.094,0.751,0.155,1.189,0.155c2.909,0,4.409-2.94,4.409-5.879c0-1.145-0.312-2.289-0.969-3.217
			c0.657-0.248,1.564-0.124,2.313,0.124c0.032,0,0.095,0.031,0.127-0.093l0.28-1.733C99.052,21.055,98.926,21.024,98.926,21.024z
			 M93.451,36.153c1.627,0.153,2.723,0.463,2.723,1.763c0,1.948-1.878,3.001-3.598,3.001c-1.438,0-2.689-0.743-2.689-2.382
			c0-1.053,0.656-2.197,1.688-2.537C92.201,36.091,92.827,36.091,93.451,36.153z M93.014,30.398c-1.531,0-2.158-1.825-2.158-3.806
			c0-2.166,0.782-3.898,2.034-3.898c1.157,0,2.033,1.485,2.033,3.929C94.923,28.604,94.172,30.398,93.014,30.398z M104.145,21.086
			c-3.19,0-4.786,4.146-4.786,8.261s2.002,6.929,4.66,6.929c3.191,0,4.786-4.145,4.786-8.259
			C108.805,23.901,106.803,21.086,104.145,21.086z M104.332,34.45c-1.439,0-2.691-2.072-2.691-5.846
			c0-3.001,0.813-5.693,2.254-5.693c1.376,0,2.627,2.072,2.627,5.846C106.521,31.759,105.708,34.45,104.332,34.45z"/>
	</g>
</g>
</svg>
