<svg xmlns="http://www.w3.org/2000/svg" viewBox="0 0 138 33" enable-background="new 0 0 138 33"><path fill="#fff" d="M27.7 10h-2.2c-.2 0-.3.2-.3.3v7.3h-4.4v-7.3c0-.2-.1-.3-.3-.3h-2.3c-.2 0-.3.1-.3.3v18.5c0 .2.1.3.3.3h2.3c.2 0 .3-.1.3-.3v-8.8h4.4v8.8c0 .2.1.3.3.3h2.2c.2 0 .3-.2.3-.3v-18.6c0-.1-.1-.2-.3-.2zm53.3 16.5c0-.1-.1-.2-.2-.2-.2 0-1.2.4-2.7.4-2.9 0-4.3-2.8-4.3-7.2 0-3.9 1.2-7.7 3.2-7.7.5 0 1.2.2 2.2 1.1.1.1.2.2.3.2.1 0 .2-.1.3-.3l1-1.7c.1-.1.1-.2.1-.3 0-.2-.2-.3-.4-.4-1.5-.7-2.5-.9-3.4-.9-3.6 0-6.3 4.3-6.3 10.9 0 5.7 2.7 9 6.5 9 1.6 0 3.3-.8 4-1.3.2-.1.2-.3.2-.4l-.5-1.2zm-16.1-7.9l4.6-8.3c.1-.1 0-.3-.1-.3h-2.2c-.6 0-.9.2-1.1.7l-3.4 7.1c-.2.4-.4.7-.6.8v-8.4c0-.2-.1-.3-.2-.3h-2.5c-.1 0-.2.1-.2.3v18.5c0 .1.1.3.2.3h2.5c.2 0 .2-.1.2-.3v-9.5l.3.3 4.3 8.9c.2.5.6.6 1.1.6h2.4c.2 0 .2-.2.1-.3l-5.4-10.1zm-21.7 8h-.5c-.6 0-.7-.2-.7-.7v-15.7c0-.2-.1-.3-.2-.3h-7.5c-.2 0-.3.1-.3.3v1.4c0 4.6-.3 10.5-2.7 15h-.8c-.2 0-.3.1-.3.3v5.5c0 .2.2.3.3.3h1.8c.4 0 .6-.3.6-.6v-3.1h8.1v3.5c0 .2.1.3.3.3h1.9c.2 0 .5-.2.5-.6v-5.2c-.2-.3-.3-.4-.5-.4zm-4.1 0h-5.5c1.9-3.3 2.7-7 3-11.6.1-1 .1-2 .1-2.7h2.4v14.3zm11.9-17.1c-4.1 0-5.9 5.2-5.9 10.8 0 5.7 2.6 9.2 6.4 9.2 1.9 0 3.5-.7 4.3-1.3.2-.1.2-.2.2-.3l-.3-1.3c0-.2-.1-.2-.3-.2-.2 0-1.3.4-2.8.4-2.9 0-4.3-2.5-4.3-5.9v-.9s1.5.2 2.4.2h5.5v-1.6c-.1-5.9-2.2-9.1-5.2-9.1zm-.4 8.3c-.9 0-2.2.2-2.2.2s0-.6.1-1.2c.3-3.2 1.1-4.9 2.5-4.9 1.2 0 2 1.7 2.2 4.6v1.3h-2.6zm-37-17.3h-4.3c-4.3 0-7.9 3.3-7.9 9.5 0 3.8 1.7 6.5 4.9 7.9l-5.8 10.5c-.2.3 0 .6.3.6h2.7c.2 0 .4-.1.5-.3l5.3-10.3h1.9v10.3c0 .1.1.3.3.3h2.4c.2 0 .3-.1.3-.3v-27.8c-.2-.2-.3-.4-.6-.4zm-2.5 15.5h-1.6c-2.5 0-4.9-1.8-4.9-6.3 0-4.8 2.2-6.7 4.5-6.7h1.9v13z"/><g fill="#fff"><path d="M92.7 3.5v1.9c0 2.8-.1 5.8-.3 9.3-.3 5.2-.6 10.3-2.4 13-.7 1.1-2 2-3.2 2l-.4-2.7c.9 0 1.7-.6 2.2-1.2 1-1.3 1.5-4.1 1.8-11.4.1-2.1.3-6.4.3-8.4v-5h10.3v28h-2v-25.5h-6.3zM114.5 27c-.4.6-1 1.4-1.9 1.9-1 .6-2.3.6-2.7.6-1.6 0-3-.6-4.3-2.4-1-1.4-1.8-3.8-1.8-7.1 0-3.1.7-5.9 2-7.8 1.1-1.6 2.2-2.2 3.8-2.2 1.4 0 2.6.6 3.7 2.1 1.4 2.1 1.8 5.6 1.7 8h-9.3c0 2.4.6 4.7 1.5 6 .8 1.1 1.7 1.4 2.7 1.4 1 0 2.2-.4 3.4-2l1.2 1.5zm-1.3-9.1c-.1-1.2-.4-3.4-1.2-4.6-.7-1-1.6-1.2-2.3-1.2-1 0-1.8.4-2.5 1.5-.9 1.4-1.2 3.2-1.3 4.4h7.3zM119.4 29h-1.7v-18.6h7.6v2.1h-5.9v16.5zM136 27.2c-1.3 1.9-3 2.3-4.2 2.3-1.2 0-2.9-.4-4.2-2.3-.9-1.3-1.8-3.6-1.8-7.5s.9-6.2 1.8-7.5c1.3-1.9 3-2.3 4.2-2.3 1.2 0 2.9.4 4.2 2.3.9 1.3 1.8 3.6 1.8 7.5.1 3.9-.8 6.2-1.8 7.5zm-6.9-13.5c-1 1.5-1.4 3.8-1.4 6s.4 4.5 1.4 6c.6.9 1.5 1.7 2.8 1.7s2.2-.8 2.8-1.7c1-1.5 1.4-3.8 1.4-6 0-2.1-.4-4.4-1.4-6-.6-.9-1.5-1.7-2.8-1.7s-2.2.8-2.8 1.7z"/></g></svg>
