<svg xmlns="http://www.w3.org/2000/svg" viewBox="0 0 101.5 84" enable-background="new 0 0 101.5 84"><g fill="#010101"><path d="M0 0h5.9v6h-5.9zM5.9 0h5.9v6h-5.9zM11.9 0h5.9v6h-5.9zM17.8 0h5.9v6h-5.9z"/></g><g fill="#010101"><path d="M0 6h5.9v6h-5.9zM11.9 6h5.9v6h-5.9zM5.9 6h5.9v6h-5.9zM17.8 6h5.9v6h-5.9z"/></g><g fill="#010101"><path d="M0 12h5.9v6h-5.9zM5.9 12h5.9v6h-5.9zM11.9 12h5.9v6h-5.9zM17.8 12h5.9v6h-5.9z"/></g><g fill="#010101"><path d="M0 18h5.9v6h-5.9zM5.9 18h5.9v6h-5.9zM11.9 18h5.9v6h-5.9zM17.8 18h5.9v6h-5.9z"/></g><g fill="#010101"><path d="M0 24h5.9v6h-5.9zM11.9 24h5.9v6h-5.9zM17.8 24h5.9v6h-5.9z"/></g><g fill="#010101"><path d="M0 29.9h5.9v6h-5.9zM5.9 29.9h5.9v6h-5.9zM17.8 29.9h5.9v6h-5.9z"/></g><g fill="#010101"><path d="M0 35.9h5.9v6h-5.9zM11.9 35.9h5.9v6h-5.9zM17.8 35.9h5.9v6h-5.9z"/></g><g fill="#010101"><path d="M0 41.9h5.9v6h-5.9zM5.9 41.9h5.9v6h-5.9zM11.9 41.9h5.9v6h-5.9zM17.8 41.9h5.9v6h-5.9z"/></g><g fill="#010101"><path d="M0 47.9h5.9v6h-5.9zM5.9 47.9h5.9v6h-5.9zM11.9 47.9h5.9v6h-5.9zM17.8 47.9h5.9v6h-5.9z"/></g><g fill="#010101"><path d="M0 53.9h5.9v6h-5.9zM11.9 53.9h5.9v6h-5.9zM5.9 53.9h5.9v6h-5.9zM11.9 65.9h5.9v6h-5.9zM17.8 53.9h5.9v6h-5.9z"/></g><g fill="#010101"><path d="M11.9 59.9h5.9v6h-5.9zM5.9 59.9h5.9v6h-5.9zM0 59.9h5.9v6h-5.9zM0 65.9h5.9v6h-5.9zM5.9 65.9h5.9v6h-5.9zM17.8 59.9h5.9v6h-5.9z"/></g><path fill="#010101" d="M17.8 65.9h5.9v6h-5.9z"/><g fill="#010101"><path d="M23.8 24h5.9v6h-5.9zM29.7 24h5.9v6h-5.9zM35.6 24h5.9v6h-5.9zM41.6 24h5.9v6h-5.9z"/></g><g fill="#010101"><path d="M23.8 29.9h5.9v6h-5.9zM29.7 29.9h5.9v6h-5.9zM41.6 29.9h5.9v6h-5.9z"/></g><g fill="#010101"><path d="M23.8 35.9h5.9v6h-5.9zM29.7 35.9h5.9v6h-5.9zM35.6 35.9h5.9v6h-5.9zM41.6 35.9h5.9v6h-5.9z"/></g><g fill="#010101"><path d="M59.9 72h5.9v6h-5.9zM65.9 72h5.9v6h-5.9zM77.7 72h5.9v6h-5.9z"/></g><g fill="#010101"><path d="M59.9 78h5.9v6h-5.9zM65.9 78h5.9v6h-5.9zM71.8 78h5.9v6h-5.9zM77.7 78h5.9v6h-5.9z"/></g><g fill="#010101"><path d="M83.7 72h5.9v6h-5.9zM89.6 72h5.9v6h-5.9zM95.6 72h5.9v6h-5.9z"/></g><g fill="#010101"><path d="M83.7 78h5.9v6h-5.9zM89.6 78h6v6h-6"/><path d="M95.6 78h5.9v6h-5.9z"/></g><g fill="#010101"><path d="M23.8 41.9h5.9v6h-5.9zM29.7 41.9h5.9v6h-5.9zM35.6 41.9h5.9v6h-5.9z"/></g><g fill="#010101"><path d="M23.8 47.9h5.9v6h-5.9zM29.7 47.9h5.9v6h-5.9z"/></g><g fill="#010101"><path d="M23.8 53.9h5.9v6h-5.9zM29.7 53.9h5.9v6h-5.9zM41.6 53.9h5.9v6h-5.9z"/></g><g fill="#010101"><path d="M29.7 59.9h5.9v6h-5.9zM35.6 59.9h5.9v6h-5.9zM41.6 59.9h5.9v6h-5.9z"/></g><g fill="#010101"><path d="M23.8 65.9h5.9v6h-5.9zM29.7 65.9h5.9v6h-5.9zM35.6 65.9h5.9v6h-5.9zM41.6 65.9h5.9v6h-5.9z"/></g><path fill="#010101" d="M47.5 24h5.9v6h-5.9z"/><g fill="#010101"><path d="M47.5 29.9h5.9v6h-5.9zM53.4 29.9h5.9v6h-5.9zM59.4 35.9v-6"/></g><g fill="#010101"><path d="M47.5 35.9h5.9v6h-5.9zM53.4 35.9h5.9v6h-5.9zM59.4 41.9v-6"/></g><g fill="#010101"><path d="M47.5 41.9h5.9v6h-5.9zM53.4 41.9h5.9v6h-5.9zM59.4 47.9v-6"/></g><g fill="#010101"><path d="M47.5 47.9h5.9v6h-5.9zM53.4 47.9h5.9v6h-5.9zM59.4 53.9v-6"/></g><g fill="#010101"><path d="M47.5 53.9h5.9v6h-5.9zM53.4 53.9h5.9v6h-5.9zM59.4 59.9v-6"/></g><g fill="#010101"><path d="M47.5 59.9h5.9v6h-5.9zM53.4 59.9h5.9v6h-5.9zM59.4 65.9v-6"/></g><path fill="#010101" d="M47.5 65.9h5.9v6h-5.9z"/></svg>