<svg xmlns="http://www.w3.org/2000/svg" viewBox="0 0 101.8 83.9" enable-background="new 0 0 101.8 83.9"><g fill="#4EB9E9"><path d="M42 33.1c-3.7 0-7 4-8.4 8.6-1.3 4.6-2 7.3-2.6 9.8-.7 2.5-.4 4.8 2.3 4.8 2.8 0 8-2.4 11.5-5.1 3.5-2.6 4.2-6.6 3.2-10.3-1-3.8-3.2-7.8-6-7.8zM39.4 62.8c0 2.5 1 9 7 9 5.8 0 11.1-3.5 13-9.4 1.9-5.9 1.3-14.6-1.4-14.6-3.7 0-5.4 3.8-9.9 6.8-4.6 3.1-8.7 4.8-8.7 8.2zM24 23.9c-4 0-9 2.6-9 7.8 0 5.1 2.1 13 2.8 16.1.7 3.2 1.7 4.4 3.7 4.4s11.3-6.2 11.3-19.4c0-4.1-1.3-8.9-8.8-8.9zM23.5 67.1c-2.5 0-1.8 4.8 1.5 4.8.8 0 1.3-.7 1.3-2.6-.1-1.1-1.1-2.2-2.8-2.2zM56.8 31.2c-2.8 0-2 5.4 1.7 5.4.9 0 1.3-1.8 1.3-3-.1-1.1-1.4-2.4-3-2.4zM51.8 35.7c1.7 0 2 3.2 2 5.6 0 2.4-.1 5.4-1.9 5.4-1.8 0-1.5-4.3-1.5-5-.1-.8.2-6 1.4-6zM11.9 12.9c2.3 0 2.6 4.2 2.6 7.4s-.2 7.1-2.5 7.1-2-5.6-2-6.6c0-.9.4-7.9 1.9-7.9zM6.2 32.3c1.7 0 5.8 3.7 5.8 7 0 2.3-1 2.8-2.5 2.8s-2.8-1.9-3.7-4.8c-.5-1.7-1.3-5 .4-5zM7.3 61.4c-3.1 0-7 1.9-7 5.4 0 3.5 2.8 5.2 6.7 5.2 3.9 0 .6-3.2.6-5.4 0-2.8 1.9-5.2-.3-5.2zM19.8 59.7c.9 1.7 3.4-.2 6.3-2.7 3-2.5 3-4.7 1.8-5.2-1.1-.4-9.7 5-8.1 7.9zM13.7 60.2c.4.8 1.6-.1 3-1.3s1.4-2.2.9-2.4c-.6-.3-4.6 2.3-3.9 3.7zM12.2 10.2c.4.8 1.6-.1 3-1.3s1.4-2.2.9-2.4c-.6-.3-4.6 2.3-3.9 3.7zM55.6 40.9c.3.6 1.3-.1 2.4-1 1.1-1 1.1-1.8.7-2-.5-.2-3.7 1.9-3.1 3zM59.2 47.7c1.1.2 1.1-1.6 1-3.8-.1-2.2-1.1-3-1.7-2.6-.5.3-1.1 6.1.7 6.4zM.6 57.6c2.1 0 3.7-1.8 5.4-4.4 1.7-2.6 2.3-5.1.7-5.1-2.9.1-8.5 9.5-6.1 9.5zM73.7 77.2c-.9.9 1.9 3.6 4.5 5.2s5 2.1 5.1.6c.1-1.5-8.1-7.3-9.6-5.8zM50.3 32.8c3.2 1.6 4.6-.7 5.4-2.2.7-1.5.1-3.7-3-5.2s-6.1.2-6.8 1.5c-.6 1.4-.4 3.5 4.4 5.9zM85.3 81.9c3.7 1.8 5.3-1 6.1-2.7.8-1.7.1-4.2-3.4-5.9-3.5-1.8-7 .2-7.7 1.7-.7 1.5-.5 4.2 5 6.9zM1.5 19.6c2.1 0 3.2.7 4.7 4.4s.9 4.7.1 4.7c-.7 0-3.3-2.3-4.8-4.9-1.6-2.6-1.5-4.2 0-4.2zM2.4 0c-2.3 0-2.1 5.6-2.1 8 0 2.3 2.9 7.8 6.5 7.8 3.7 0 2.4-3.8 1.4-6s-2.9-9.8-5.8-9.8zM7 1.9c0 1.8 3.6 3.2 5.8 3.2s4-.4 4-2.2c0-1.8-1.8-2.9-4.3-2.9-2.6 0-5.5.5-5.5 1.9zM21.4 0c-2.3 0-2.9 1.7-2.9 3.4s1.6 2.8 3.5 2.8 2-2.9 2-3.5c.1-.7-.6-2.7-2.6-2.7zM22.7 7.7c-2.7-1.4-4.8 3.6-6.1 5.9-1.3 2.4-1.1 7.2 2.1 9 3.2 1.7 4.3-3.2 4.5-5.2.3-2.2 1.9-8.4-.5-9.7zM6.2 58.6c1.2 0 2.3-.9 5.6-5.1 3.5-4.5 5-7.4 3.6-7.9-1.3-.5-4.8 3.2-7.3 6.8-2.5 3.7-3.3 6.2-1.9 6.2zM60.1 74.7c.1 1.4 1.6 1.8 7.3 1.7 5.7-.2 9.6-2.1 9.1-3.4-.5-1.3-5.6-1.3-9.9-.5-4.4.6-6.6.9-6.5 2.2zM.4 36.9c0-2.3.7-3.7 1.7-3.7 1.5 0 3.7 3.5 3.7 8.6s-2.5 6.7-3.8 6.7c-1.2 0-1.8-1-1.8-3.9.1-2.3.2-7.7.2-7.7zM16.2 63.3c-3.4 0-5.8 3.4-5.8 5.8s2.1 2.8 4.6 2.8h3.5c1.6 0 3.1-1.2 2.5-3.3-.7-2-1.8-5.3-4.8-5.3zM32.4 57.4c-2.5 0-5.6 2.7-5.6 7.6s.9 7 4.8 7h4.5c2 0 4.4-1.8 1.9-4.6-3.5-4.2-2.1-10-5.6-10zM97.2 83.9c2.1 0 4.6-2.2 4.6-6.2 0-3.6-1.3-5.8-4-5.8h-3.4c-2.4 0-3.4 2-1.9 3.8 3.3 3.9 1.8 8.2 4.7 8.2zM35.4 23.9h6.8c1.6 0 2.9 1.5 1.9 3.9s-3.7 1.8-6 1.8c-2.6 0-5.1-1.6-5.1-3.6s1-2.1 2.4-2.1zM63.1 78.3h4.9c1 0 3.4 0 3.4 2.4 0 2.6-3.7 3.3-6 3.3-2.6 0-5.1-1.6-5.1-3.6 0-1.8 1.5-2.1 2.8-2.1z"/></g></svg>