<svg xmlns="http://www.w3.org/2000/svg" viewBox="0 0 97.2 83.9" enable-background="new 0 0 97.2 83.9"><path fill="#243E8E" d="M55.6 71.9h41.5v12h-41.5z"/><path fill="#F7B334" d="M55.6 50.1h-25.5v21.8h19.4v-17.2h6.1z"/><path fill="#243E8E" d="M41.7 23.8h-18v-23.8h-23.7v71.9h30.1v-21.8h25.5v-12.4c0-7.7-6.2-13.9-13.9-13.9zm4.1 19.5h-4.4l-5-1.1v-1.1h9.5v2.2z"/><path fill="#fff" d="M22 33.1h-15.1c-1 0-1.8.8-1.8 1.8v.9c0 1 .8 1.8 1.8 1.8h2c-.9.1-1.5.9-1.5 1.7v.9c0 1 .8 1.8 1.8 1.8h4.1c-1 0-1.8.8-1.8 1.8v.9c0 1 .8 1.8 1.8 1.8h4.4v2.1c0 1 .8 1.8 1.8 1.8h2.5c1 0 1.8-.8 1.8-1.8v-13.7c0-1-.8-1.8-1.8-1.8z"/></svg>