<svg xmlns="http://www.w3.org/2000/svg" viewBox="0 0 113.1 83.7" enable-background="new 0 0 113.1 83.7"><path fill="#ED3393" d="M.5 11.9c0 .6.5 1.1 1.1 1.1h21.3c.6 0 1.1-.5 1.1-1.2 0-.6-.5-1.2-1.1-1.2h-21.3c-.6.1-1.1.6-1.1 1.3z"/><path fill="#ED1C24" d="M11.8 35.8c0 1.8 1.4 3.3 3 3.3h53.9c1.7 0 3-1.5 3-3.3 0-1.8-1.4-3.3-3-3.3h-53.9c-1.7.1-3 1.5-3 3.3zM71.6 74.7c0 1.7 1.2 3 2.8 3h35.9c1.5 0 2.8-1.3 2.8-3s-1.2-3-2.8-3h-36c-1.5.1-2.7 1.4-2.7 3z"/><path fill="#4C85C5" d="M71.5 80.7c0 1.7 1.2 3 2.8 3h36c1.5 0 2.8-1.3 2.8-3s-1.2-3-2.8-3h-36c-1.5 0-2.8 1.4-2.8 3z"/><path fill="#2E4A9F" d="M11.8 42.4c0 1.8 1.4 3.3 3 3.3h53.9c1.7 0 3-1.5 3-3.3 0-1.8-1.4-3.3-3-3.3h-53.9c-1.7 0-3 1.5-3 3.3z"/><path fill="#ED1C24" d="M11.8 48.9c0 1.8 1.4 3.3 3 3.3h53.9c1.7 0 3-1.5 3-3.3 0-1.8-1.4-3.3-3-3.3h-53.9c-1.7 0-3 1.5-3 3.3z"/><path fill="#ED3393" d="M11.8 55.4c0 1.8 1.4 3.3 3 3.3h53.9c1.7 0 3-1.5 3-3.3 0-1.8-1.4-3.3-3-3.3h-53.9c-1.7 0-3 1.5-3 3.3z"/><path fill="#2E4A9F" d="M11.6 61.9c0 1.8 1.4 3.3 3 3.3h53.9c1.7 0 3-1.5 3-3.3 0-1.8-1.4-3.3-3-3.3h-53.8c-1.7 0-3.1 1.5-3.1 3.3z"/><path fill="#821438" d="M11.8 68.4c0 1.8 1.4 3.3 3 3.3h48.8c1.7 0 3-1.5 3-3.3 0-1.8-1.4-3.3-3-3.3h-48.8c-1.7.1-3 1.5-3 3.3z"/><path fill="#ED3393" d="M11.8 29.3c0 1.8 1.4 3.3 3 3.3h48.8c1.7 0 3-1.5 3-3.3 0-1.8-1.4-3.3-3-3.3h-48.8c-1.7.1-3 1.5-3 3.3z"/><path fill="#ED1C24" d="M6.1 37.9c0 .6.5 1.2 1.1 1.2h37.3c.6 0 1.1-.5 1.1-1.2 0-.6-.5-1.2-1.1-1.2h-37.3c-.6.1-1.1.6-1.1 1.2z"/><path fill="#ED2024" d="M.5 51c0 .6.5 1.2 1.1 1.2h36.2c.6 0 1.1-.5 1.1-1.2 0-.6-.5-1.2-1.1-1.2h-36.3c-.6 0-1 .5-1 1.2z"/><path fill="#BF1E5B" d="M5.9 29.3c0 1.8 1.4 3.3 3 3.3h23.8c1.7 0 3-1.5 3-3.3 0-1.8-1.4-3.3-3-3.3h-23.8c-1.6.1-3 1.5-3 3.3z"/><path fill="#4981C3" d="M39.7 42.4c0 1.8 1.4 3.3 3 3.3h26c1.7 0 3-1.5 3-3.3 0-1.8-1.4-3.3-3-3.3h-26c-1.6 0-3 1.5-3 3.3z"/><path fill="#ED3393" d="M11.9 22.8c0 1.8 1.4 3.3 3 3.3h17.8c1.7 0 3-1.5 3-3.3 0-1.8-1.4-3.3-3-3.3h-17.8c-1.7 0-3 1.5-3 3.3z"/><path fill="#821438" d="M11.9 16.3c0 1.8 1.4 3.3 3 3.3h17.9c1.7 0 3-1.5 3-3.3 0-1.8-1.4-3.3-3-3.3h-17.9c-1.7 0-3 1.5-3 3.3z"/><path fill="#E6C1DB" d="M22.4 16.3c0 1.8 1.4 3.3 3 3.3h7.3c1.7 0 3-1.5 3-3.3 0-1.8-1.4-3.3-3-3.3h-7.3c-1.6 0-3 1.5-3 3.3z"/><path fill="#ED3393" d="M11.9 9.8c0 1.8 1.4 3.3 3 3.3h17.8c1.7 0 3-1.5 3-3.3 0-1.8-1.4-3.3-3-3.3h-17.8c-1.7 0-3 1.5-3 3.3z"/><path fill="#4981C3" d="M11.9 3.3c0 1.8 1.4 3.3 3 3.3h17.8c1.7 0 3-1.5 3-3.3 0-1.8-1.4-3.3-3-3.3h-17.8c-1.7 0-3 1.5-3 3.3z"/><path fill="#E6C1DB" d="M11.8 48.9c0 1.8 1.4 3.3 3 3.3h26c1.7 0 3-1.5 3-3.3 0-1.8-1.4-3.3-3-3.3h-26c-1.7 0-3 1.5-3 3.3z"/><path fill="#ED1C24" d="M5.9 48.9c0 1.8 1.4 3.3 3 3.3h17.6c1.7 0 3-1.5 3-3.3 0-1.8-1.4-3.3-3-3.3h-17.6c-1.6 0-3 1.5-3 3.3z"/><path fill="#821438" d="M39.7 55.4c0 1.8 1.4 3.3 3 3.3h26c1.7 0 3-1.5 3-3.3 0-1.8-1.4-3.3-3-3.3h-26c-1.6 0-3 1.5-3 3.3z"/><path fill="#2E4A9F" d="M11.6 61.9c0 1.8 1.4 3.3 3 3.3h26c1.7 0 3-1.5 3-3.3 0-1.8-1.4-3.3-3-3.3h-26c-1.6 0-3 1.5-3 3.3z"/><path fill="#821438" d="M.4 70.5c0 .6.5 1.2 1.1 1.2h39.2c.6 0 1.1-.5 1.1-1.2 0-.6-.5-1.2-1.1-1.2h-39.2c-.6 0-1.1.6-1.1 1.2z"/><path fill="#ED1C24" d="M54.6 76.7c0 .6.4 1.1 1 1.1h37.7c.5 0 1-.5 1-1.1 0-.6-.4-1.1-1-1.1h-37.7c-.5 0-1 .5-1 1.1z"/><path fill="#4C85C5" d="M63.9 82.7c0 .6.4 1.1 1 1.1h38.8c.5 0 1-.5 1-1.1 0-.6-.4-1.1-1-1.1h-38.8c-.5 0-1 .5-1 1.1z"/><path fill="#4981C3" d="M6.1 5.3c0 .6.5 1.2 1.1 1.2h23c.6 0 1.1-.5 1.1-1.2 0-.6-.5-1.2-1.1-1.2h-23c-.6.1-1.1.6-1.1 1.2z"/></svg>