<svg xmlns="http://www.w3.org/2000/svg" viewBox="0 0 155.8 85.5" enable-background="new 0 0 155.8 85.5"><path fill="#019E87" d="M52.6 25.2c-.2 0-.3-.2-.3-.6l-1.8-8.9c-.1-.3-.1-.4-.2-.4 0 0-.1.1-.2.4l-1.1 5.1c-.1.4-.2.6-.4.6s-.3-.2-.4-.6l-1.3-5.2c-.1-.3-.2-.4-.3-.4-.1 0-.2.1-.3.4-.3.7-1.2 1.2-1.9 1.2h-.7c-.7 0-1.4.5-1.7 1.1l-.5 1.4c-.2.5-.4.6-.5.6-.1 0-.3-.1-.5-.6l-1.2-3.6c-.1-.3-.3-.5-.4-.6-.1 0-.2 0-.3.1-.4.4-1.2.7-1.9.7h-25.5c-.1 0-.1 0-.1-.1s0-.1.1-.1h25.3c.7 0 1.4-.3 1.8-.7.2-.2.4-.2.5-.2.3.1.5.4.6.7l1.2 3.6c.1.3.2.4.3.4.1 0 .2-.1.3-.4l.5-1.4c.3-.7 1.1-1.2 1.9-1.2h.7c.7 0 1.5-.5 1.7-1.1.2-.4.4-.5.6-.5.1 0 .3.1.5.6l1.3 5.2c.1.4.2.4.2.4s.1 0 .2-.4l1.2-5.1c.1-.4.2-.6.4-.6s.3.2.4.6l1.8 8.9c0 .2.1.3.1.4 0 0 .1-.2.1-.4l1.1-7.2c.1-.4.2-.6.4-.6s.3.2.5.5l1.4 3.9c.1.3.2.4.3.4 0 0 .1-.1.2-.4l1.1-5.3c.2-.8.8-1.2 1.7-1.1h.2c.7.1 1.9.2 2.6.2h57.4c.1 0 .1 0 .1.1s0 .1-.1.1h-57.4c-.8 0-1.9-.1-2.7-.2h-.2c-.5-.1-1.2 0-1.4.9l-1.1 5.3c-.1.5-.3.6-.4.6-.1 0-.3-.1-.5-.5l-1.4-3.9c-.1-.3-.2-.4-.2-.4s-.1.1-.2.4l-1.1 7.2c-.2.5-.3.7-.5.7z"/><path fill="#61C6C5" d="M50.4 27.8c-.2 0-.4-.1-.4-.3l-1.3-6.1-1.1 5c0 .2-.2.4-.4.3-.2 0-.4-.2-.4-.4l-1.3-9.3-.7 7.4c0 .2-.2.4-.4.4s-.4-.1-.5-.3l-1.5-7-.8 6.9c0 .2-.2.4-.4.4s-.4-.1-.5-.3l-1.9-6.2-1.9 2.1c-.1.1-.2.1-.3.1h-21.4c-.2 0-.4-.2-.4-.4s.2-.4.4-.4h21.2l2.3-2.5c.1-.1.3-.2.4-.1.2 0 .3.1.3.3l1.5 5 .8-7.6c0-.2.2-.4.4-.4s.4.1.5.3l1.5 6.9.8-8.3c0-.2.2-.4.4-.4s.4.2.4.4l1.4 10.5 1-4.6c0-.2.2-.3.4-.3s.4.1.4.3l1.2 5.9.7-4.1c0-.2.2-.3.4-.4.2 0 .4.1.5.2l1 2 1.4-2c.1-.1.2-.2.3-.2.1 0 .3 0 .4.1l1.6 1.7 3.3-2.3c.1-.1.3-.1.5 0 .1.1.2.2.2.4v3.7h50.6c.2 0 .4.2.4.4s-.2.4-.4.4h-50.9c-.2 0-.4-.2-.4-.4v-3.3l-2.9 2.1c-.2.1-.4.1-.6-.1l-1.5-1.6-1.5 2.1c-.1.1-.2.2-.4.2s-.3-.1-.4-.2l-.8-1.5-.9 5.1c.1.3-.1.4-.3.4zM105.1 85.1c-.1 0-.3-.1-.4-.2l-3.4-4.8-4.5 4.8c-.1.1-.3.2-.5.1s-.3-.2-.3-.4v-4.9h-15.8c-.2 0-.4-.2-.4-.4s.2-.4.4-.4h16.3c.1 0 .2 0 .3.1.1.1.1.2.1.3v4.2l4.1-4.4c.1-.1.2-.1.4-.1.1 0 .3.1.3.2l3.4 4.7 2.2-3.3c.1-.1.2-.2.4-.2.1 0 .3.1.4.2l2.4 3.2 2.3-5.2c.1-.2.2-.3.4-.3s.3.1.4.3l2.1 5.2 2.2-3c.1-.1.2-.2.3-.2.1 0 .3.1.4.2l2.5 3.1 1.8-3.8c.1-.1.2-.2.4-.2s.3.1.4.2l1.9 2.8 2.7-2.9c.1-.1.3-.2.5-.1l4.8 1.9 4.2-2.4c.1-.1.3-.1.4 0s.2.2.2.4v3.7h17.1c.2 0 .4.2.4.4s-.2.4-.4.4h-17.6c-.2 0-.4-.2-.4-.4v-3.4l-3.8 2.2c-.1.1-.3.1-.4 0l-4.7-1.9-2.9 3c-.1.1-.2.2-.4.1-.1 0-.3-.1-.3-.2l-1.8-2.7-1.8 3.7c-.1.1-.2.2-.3.2-.1 0-.3 0-.4-.2l-2.6-3.2-2.3 3.2c-.1.1-.2.2-.4.2s-.3-.1-.4-.3l-2-4.9-2.1 5c-.1.1-.2.2-.4.3-.2 0-.3 0-.4-.2l-2.5-3.3-2.2 3.3c0 .2-.1.3-.3.3z"/><path fill="#046C5F" d="M78.6 65c-.1 0-.2-.2-.3-.6l-1.7-10c0-.2-.1-.3-.1-.4 0 .1-.1.2-.1.4l-1.2 7.3c-.1.4-.2.6-.3.6-.2 0-.3-.2-.3-.6l-1.4-7.3c-.1-.3-.1-.4-.1-.4s-.1.1-.1.4l-1 5c-.1.4-.2.6-.4.6s-.3-.2-.4-.6l-1.4-5c-.1-.3-.1-.4-.2-.4 0 0-.1.1-.1.4l-1 8.1c0 .4-.1.6-.3.6-.2 0-.3-.2-.4-.6l-1.6-6.9c-.1-.2-.1-.4-.1-.4s-.1.1-.1.4l-1.1 7.4c-.1.4-.2.6-.3.6-.1 0-.2-.2-.3-.6l-1.8-10c0-.2-.1-.4-.3-.5-.2-.1-.4 0-.6.2-.6.4-1.4.9-2.1.9-.7 0-1.8-.1-2.5-.2h-.2c-.5-.1-1.1 0-1.3.9l-1 5.3c-.1.4-.2.6-.4.6s-.3-.2-.4-.5l-1.3-3.9c-.1-.3-.2-.4-.2-.4s-.1.1-.1.4l-1 7.2c-.1.4-.2.6-.3.6-.1 0-.2-.2-.3-.6l-1.6-8.9c-.1-.3-.1-.4-.1-.4s-.1.1-.1.4l-1.1 5.1c-.6.6-.7.8-.9.8-.2 0-.3-.2-.4-.6l-1.2-5.2c-.1-.3-.2-.4-.2-.4-.1 0-.2.1-.3.4-.3.7-1.1 1.2-1.8 1.2h-.7c-.6 0-1.3.5-1.5 1.1l-.5 1.4c-.2.5-.4.6-.5.6-.1 0-.3-.1-.5-.6l-1.1-3.7c-.1-.3-.2-.6-.4-.6-.1 0-.2 0-.3.1-.4.4-1.1.7-1.8.7h-34.8c-.1 0-.1 0-.1-.1s0-.1.1-.1h34.9c.6 0 1.3-.3 1.6-.7.2-.2.3-.2.5-.2.3.1.5.4.5.7l1.1 3.6c.1.3.2.4.3.4.1 0 .2-.1.3-.4l.5-1.4c.2-.7 1-1.2 1.7-1.2h.7c.6 0 1.3-.5 1.6-1.1.2-.4.4-.5.5-.5.1 0 .3.1.4.6l1.2 5.2c.1.3.2.4.2.4s.1-.1.2-.4l1.1-5.1c.1-.4.2-.6.4-.6s.3.2.3.6l1.6 8.9c0 .2.1.3.1.4 0-.1.1-.2.1-.4l1-7.2c.1-.4.2-.6.3-.6.2 0 .3.2.4.5l1.3 3.9c.1.3.2.4.2.4s.1-.1.2-.4l1-5.3c.2-.8.8-1.2 1.6-1.1h.2c.7.1 1.7.2 2.4.2s1.5-.4 2-.8c.3-.2.6-.3.8-.2.2.1.3.2.4.7l1.8 10c0 .2.1.3.1.4 0-.1.1-.2.1-.4l1.1-7.4c.1-.4.2-.6.3-.6.2 0 .3.2.4.6l1.6 6.9c.3.3.3.4.4.4 0 0 .1-.2.1-.4l1-8.1c0-.4.1-.6.3-.6.2 0 .3.2.4.6l1.4 5c.1.4.2.4.2.4s.1 0 .2-.4l1-5c.1-.4.2-.6.4-.6s.3.2.4.6l1.4 7.3c0 .2.1.3.1.4 0 0 .1-.2.1-.4l1.2-7.3c.1-.4.2-.6.3-.6.1 0 .2.2.3.6l1.7 10c0 .2.1.3.1.3 0-.1 0-.2.1-.3l1.2-9.9c0-.4.1-.6.3-.6.1 0 .2.2.3.6l1.5 7.4c0 .2.1.3.1.4 0-.1.1-.2.1-.4l1.1-7.5c.1-.4.2-.6.4-.7.2-.1.5 0 .7.3l.6.6c.2.2.4.3.7.3.3 0 .5-.2.7-.4v-.1c.4-.6 1.3-1.1 2-1.1h.1c.5 0 .7-.2.9-.4.2-.2.4-.4.7-.4.4 0 .6.4.9 1.2l1.4 5.3c.1.3.2.4.2.4s.1-.1.2-.4l1.1-4.9c.1-.4.2-.6.4-.6s.3.2.4.6l.2.6c.2.7.5 1.1 1.5 1.1h23.4c.1 0 .1 0 .1.1s0 .1-.1.1h-23.7c-1.1 0-1.5-.6-1.7-1.3l-.2-.6c-.1-.3-.2-.4-.2-.4s-.1.1-.2.4l-1.1 4.9c-.1.4-.2.6-.4.6s-.3-.2-.4-.6l-1.4-5.3c-.2-.7-.4-1.1-.6-1.1-.2 0-.4.1-.6.3-.2.2-.5.5-1.1.5h-.1c-.6 0-1.5.4-1.8 1v.1c-.2.3-.5.5-.8.5-.3 0-.6-.1-.9-.4l-.6-.6c-.2-.2-.4-.3-.5-.3-.1 0-.3.2-.3.5l-1.1 7.5c-.1.4-.2.6-.3.6-.1 0-.2-.2-.3-.6l-1.5-7.4c0-.2-.1-.3-.1-.4 0 .1 0 .2-.1.4l-1.2 9.9c.1.5 0 .7-.1.7zM44.9 66.2c-.1 0-.1-.1-.2-.6-.1-1.4-.6-6.6-.9-10.1-.1 1.4-.2 3.5-.4 6.6 0 .5-.1.6-.2.6s-.2-.1-.2-.6l-1-12-.7 7.2c0 .5-.1.6-.2.6-.1.1-.1-.1-.1-.5 0-.3-.5-6.6-.7-9.6-.2 2.6-.5 7.5-.5 7.7v.1h-.1s-.1 0-.1-.1v-.1c-.1-.3-.2-1.3-.5-4.1-.1-1.2-.3-3-.4-3.8-.1.3-.2.8-.3 1.3-.1.4-.2.6-.4.6s-.3-.2-.4-.6l-.4-2c-.1-.6-.8-1.1-1.4-1.1h-22c-.1 0-.1 0-.1-.1s0-.1.1-.1h22c.7 0 1.5.6 1.6 1.3l.4 2c.1.3.2.4.2.4s.1-.1.2-.4c.5-1.9.5-1.9.6-1.9.1 0 .1.1.1.1 0 .2.6 5.1.8 7.3.1-.9.1-2.3.2-3.6.1-1.1.2-2.3.2-3.1.1-.8.1-1.2.1-1.3v-.1c0-.1.1-.1.1-.1h.1v.1c0 .3.7 10.1.8 11.1l.7-7.2c0-.5.1-.6.2-.6s.2.1.2.6l.9 11.7c.2-2.8.4-6.5.5-8.3v-1.1l.1-.1c.1 0 .1 0 .1 1.2.1 2.2.6 7.4 1 11.4l.1-10.3c0-.5.1-1 .3-1.1.1 0 .2-.1.2 0 .2.1.6 0 .9-.2.4-.2.9-.1 1.1.3 0 .1.1.1.1.1.1 0 .3-.2.4-.6.1-.5.4-.7.6-.8.1 0 .2 0 .4.2 0 .1.1.1.1.1.1 0 .3-.2.4-.7l.1-.4c.2-.7.9-1.3 1.7-1.3l3.3.1c.6 0 1.3-.5 1.5-1.1l.3-.8c.2-.5.4-.6.5-.6.1 0 .4.1.5.6l.2.6c.1.4.3.5.3.5s.1-.1.2-.3c.1-.4.3-.4.4-.4.2 0 .4.2.5.6l.3.9c.1.3.2.4.3.4 0 0 .2-.1.2-.4.1-.4.3-.6.4-.6.2 0 .3.2.4.6l.3 1.3c.2-.7.5-2 .6-2.4.1-.4.2-.6.4-.6s.3.2.3.6l.2 1.3.1.4s.1-.1.2-.4l.4-1.5c.1-.4.2-.6.4-.6s.3.2.3.6l.4 2.4c0 .2.1.4.1.4s.1-.1.1-.4l.2-.8c.1-.4.2-.6.4-.6s.3.2.5.5l.2.7c.1.3.2.4.2.4s.1-.1.2-.4c.1-.4.2-.6.4-.6s.3.2.5.5l.2.5c.1.3.2.4.3.4.1 0 .2-.1.3-.4v-.1c.1-.5.3-.6.5-.6.1 0 .3.1.5.6v.1c.1.3.2.4.3.4 0 0 .2-.1.3-.4l.2-.6c.1-.4.3-.6.5-.6.1 0 .3.1.5.5.1.2.2.3.3.3.1 0 .2-.1.4-.4.2-.5.5-1 .7-1.1h.2c.2.1.5 0 .7-.1.3-.2.7-.1 1.1.2.1.1.2.1.3.1.1 0 .2-.1.3-.3.1-.3.3-.4.4-.4.2 0 .4.1.5.3.1.2.3.3.4.2.1 0 .2-.1.3-.2.1-.2.3-.4.6-.4.2 0 .3 0 .5.1.2.2.5.1.7-.1.2-.3.7-.4 1-.2.2.1.6.1.8-.1.3-.2 1.1-.4 1.8-.4h2.9c.7 0 1.6.3 1.9.7.2.2.3.2.5.2.1 0 .2-.1.3-.2.1-.3.3-.3.4-.3.2 0 .4.2.5.5.1.2.2.4.3.4.1 0 .2-.1.3-.2.1-.2.3-.3.5-.3s.4.2.5.5c.2.4.4.6.4.6 0-.1.1-.1.2-.1s.2.2.3.4c0 .1.1.2.2.2s.2 0 .3-.1c.3-.2 1.1-.4 1.8-.4h36.4c.1 0 .1.1.1.1 0 .1-.1.1-.1.1h-36.3c-.7 0-1.4.2-1.7.3-.2.1-.4.1-.5.1l-.3-.3c0-.2-.1-.3-.1-.3-.1.1-.1.1-.2.1-.3 0-.5-.5-.6-.7-.1-.2-.2-.3-.4-.3-.1 0-.2.1-.3.2-.1.2-.3.3-.5.3s-.4-.2-.5-.5c-.1-.3-.2-.4-.3-.4-.1 0-.1.1-.2.2-.1.2-.2.3-.4.4-.2 0-.5-.1-.7-.3-.3-.3-1.1-.6-1.8-.6h-2.9c-.7 0-1.4.2-1.7.3-.3.2-.8.3-1.1.1-.2-.1-.5-.1-.7.1-.2.3-.7.3-1 .1-.1-.1-.2-.1-.3-.1-.2 0-.3.1-.4.3-.1.2-.3.3-.5.3s-.4-.1-.6-.3c-.1-.2-.2-.2-.3-.2-.1 0-.1.1-.2.2-.1.2-.2.4-.4.4s-.4 0-.5-.1c-.3-.2-.6-.3-.8-.1-.3.2-.6.3-.9.1h-.1c-.2.1-.4.4-.6.9-.1.4-.3.6-.6.6-.1 0-.3-.1-.5-.5-.1-.2-.2-.3-.3-.3-.1 0-.2.1-.3.5l-.2.6c-.1.5-.3.6-.5.6-.1 0-.3-.1-.5-.6v-.1c-.1-.3-.2-.4-.3-.4-.1 0-.2.1-.3.4v.1c-.1.5-.3.6-.5.6-.1 0-.3-.1-.5-.5l-.2-.5c-.1-.3-.2-.4-.3-.4 0 0-.1.1-.2.4v.1c-.1.4-.2.6-.4.6s-.3-.2-.5-.5l-.2-.7c-.1-.3-.2-.4-.3-.4 0 0-.1.1-.2.4l.3.8c-.1.4-.2.6-.3.6-.2 0-.3-.2-.3-.6l-.5-2.5-.1-.4s-.1.1-.2.4l-.4 1.5c-.1.4-.2.6-.4.6s-.3-.2-.3-.6l-.2-1.3c-.1-.3-.1-.4-.1-.4s-.1.1-.2.4c-.2 1-.6 2.6-.6 2.8 0 .1 0 .1-.1.1s-.1 0-.6-1.8c-.1-.3-.2-.4-.2-.4s-.1.1-.2.4c-.1.5-.3.6-.5.6-.1 0-.3-.1-.5-.6l-.3-.9c-.1-.4-.3-.5-.3-.5s-.1.1-.2.3c-.1.4-.3.4-.4.4-.2 0-.4-.2-.5-.6l-.2-.6c-.2-.3-.3-.4-.4-.4-.1 0-.2.1-.3.4l-.3.8c-.2.7-1 1.2-1.7 1.2l-3.3-.1c-.6 0-1.3.5-1.4 1.1l-.1.4c-.1.5-.3.8-.6.8-.1 0-.2 0-.3-.2l-.1-.1c-.1 0-.3.2-.4.6-.1.5-.4.8-.6.8-.1 0-.2 0-.3-.2-.2-.3-.5-.4-.8-.2-.4.2-.8.3-1.1.2-.1.1-.2.4-.2 1l-.5 11.1c0 .5 0 .6-.1.6zM39.1 33.1s-.1 0-.1-.1c-.1-.3-.2-1.2-.6-4-.2-1.1-.4-2.9-.5-3.7l-1.5 4.5c0 .1-.1.1-.1.1-.1 0-.1-.1-.1-.1v-7.8h-29.1c-.1 0-.1 0-.1-.1s0-.1.1-.1h29.2c.1 0 .1 0 .1.1v7.3l1.4-4.4c0-.1.1-.1.1-.1.1 0 .1.1.1.1 0 .2.6 5 1 7.2.1-1 .2-2.7.3-4.3.1-1.3.2-2.6.2-3.5.1-.9.1-1.3.1-1.5v-.1c0-.1 0-.1.1-.1h.1v.1c0 .3.6 3.6.9 5.3l.8-2.3.1-.1c.1 0 .1 0 .1.1l1.1 2 1.1-1.6s.1-.1.1 0l.1.1c0 .1.2 3.6.3 5.7l.4-2.6s0-.1.1-.1.1 0 .1.1l.8 1.8 1.1-.7h.1s.1 0 .1.1l.6 1.1.7-2.3s0-.1.1-.1c0 0 .1 0 .1.1l.7 1.1.7-1.8.1-.1h6.1l1-4.5.1-.1c.1 0 .1 0 .1.1l1 2.9.5-1.9.1-.1s.1 0 .1.1l1 3.2.6-2.3.1-.1s.1 0 .1.1c.2.9.5 2.3.7 2.9.2-.8.7-2.4.9-3l.1-.1s.1 0 .1.1l.6 2.7 1-2.8.1-.1s.1 0 .1.1l.7 3.7.6-3.1.1-.1c.1 0 .1 0 .1.1l1 3 .4-2.4.1-.1c.1 0 .1 0 .1.1l1 2.9.7-2.5.1-.1c.1 0 .1 0 .1.1l.8 2.4.8-3 .1-.1s.1 0 .1.1l.8 2.1.8-2.3s0-.1.1-.1h.1l.7.4.8-.6h.1l1 .9.4-1.4s0-.1.1-.1h.1l.9 1.4.8-1.3.1-.1h.1l.9.8.7-.9s.1-.1.2 0l.9.6 1-.8h5.799999999999999l1.2 1.3.6-1.4s0-.1.1-.1c0 0 .1 0 .1.1l.7 1.9.8-1.3.1-.1s.1 0 .1.1l.8 1.7.3-.4h.1s.1 0 .1.1l.2 1 .9-.7h25.8c.1 0 .1 0 .1.1s0 .1-.1.1h-25.8l-1 .8h-.1s-.1 0-.1-.1l-.2-1-.4.4s-.1.1-.1 0c0 0-.1 0-.1-.1l-.7-1.6-.8 1.3-.1.1s-.1 0-.1-.1l-.7-1.8-.5 1.3s0 .1-.1.1h-.1l-1.3-1.4h-5.6l-1 .8h-.1l-.8-.6-.7.9h-.2l-.9-.8-.8 1.3-.1.1s-.1 0-.1-.1l-.9-1.3-.4 1.4s0 .1-.1.1h-.1l-1-1-.8.6h-.1l-.7-.3-.8 2.5-.1.1s-.1 0-.1-.1l-.8-2.1-.8 3-.1.1c-.1 0-.1 0-.1-.1l-.8-2.4-.7 2.5-.1.1c-.1 0-.1 0-.1-.1l-.9-2.8-.4 2.4-.1.1c-.1 0-.1 0-.1-.1l-1-3-.6 3.2c0 .1-.1.1-.1.1-.1 0-.1 0-.1-.1l-.8-3.9-1 2.8-.1.1s-.1 0-.1-.1l-.6-2.7c-.4 1.2-.8 2.8-.9 2.9 0 .1 0 .1-.1.1s-.1 0-.8-3l-.6 2.3-.1.1c-.1 0-.1 0-.1-.1l-1-3.2-.5 1.9-.1.1s-.1 0-.1-.1l-1-2.9-1 4.2-.1.1h-6.2l-.7 1.9s0 .1-.1.1c0 0-.1 0-.1-.1l-.7-1.1-.7 2.4s0 .1-.1.1c0 0-.1 0-.1-.1l-.7-1.2-1.1.7h-.1s-.1 0-.1-.1l-.5-1.6-.5 3.3c0 .1-.1.1-.1.1-.1 0-.1 0-.1-.1-.2-4.2-.3-5.9-.3-6.5l-1 1.5h-.1s-.1 0-.1-.1l-1.1-2-.9 2.4-.1.1s-.1 0-.1-.1c0-.2-.5-3.1-.8-4.7-.2 2.6-.6 9.2-.6 9.4 0 .2 0 .3-.1.3zM85.6 45.4c-.1 0-.1 0-.1-.1l-.9-7.2-.8 6.2c0 .1-.1.1-.1.1-.1 0-.1 0-.1-.1l-.9-4.5-.9 3.8-.1.1c-.1 0-.1 0-.1-.1l-.8-3-.9 2-.1.1s-.1 0-.1-.1l-.9-3.4-.8 2.4-.1.1s-.1 0-.1-.1l-1-4.2-.7 3-.1.1c-.1 0-.1 0-.1-.1l-.9-3-.9 1.5-.1.1s-.1 0-.1-.1l-.9-4.1-.8 2.5s0 .1-.1.1h-.1l-.8-1.2-.8 2.4-.1.1s-.1 0-.1-.1l-1.5-4.8-.3.5s-.1.1-.1 0c0 0-.1 0-.1-.1l-.9-3.2-.9 3.1s0 .1-.1.1h-.1s-.7-.8-1.2-.8h-3.2c-.8 0-1.1.8-1.1.8l-.1.1s-.1 0-.1-.1l-.8-3c-.2 1.8-.8 7.1-.8 7.4 0 .1 0 .1-.1.1s-.1 0-.1-.1c0-.2-.6-4.9-1-8.1l-.7 8c0 .1-.1.1-.1.1-.1 0-.1 0-.1-.1-.1-.8-.6-4.3-.9-5.8-.2 1.4-.6 4.6-.9 6.4 0 .1-.1.1-.1.1-.1 0-.1 0-.1-.1l-.8-5.2-.7 3.5c0 .1 0 .1-.1.1s-.1 0-.1-.1c0 0-.1-.6-.4-2-.2-1-1.1-1-1.1-1h-8.2l-1.4-1-.4 5.3c0 .1-.1.1-.1.1-.1 0-.1 0-.1-.1l-1-8.7-.7 10.1c0 .1 0 .1-.1.1s-.1 0-.1-.1l-1.1-8.5-.6 6c0 .1-.1.1-.1.1-.1 0-.1 0-.1-.1l-1.1-5.8v2.1c0 .1 0 .1-.1.1h-26.8c-.1 0-.1 0-.1-.1s0-.1.1-.1h26.6v-3.2c0-.1 0-.1.1-.1s.1 0 .1.1l1.2 6.3.7-6.2c0-.1.1-.1.1-.1.1 0 .1 0 .1.1l1 8.3.7-10.2c0-.1 0-.1.1-.1s.1 0 .1.1l1 8.6.3-4.2s0-.1.1-.1h.1l1.6 1.1h8.1s1 0 1.3 1.2c.1.6.2 1 .3 1.4l.7-3.5c0-.1.1-.1.1-.1.1 0 .1 0 .1.1l.8 5.1c.1-.7.2-1.8.4-2.9.1-.9.2-1.8.3-2.5.1-.6.1-.9.2-1.1 0-.1.1-.1.1-.1.1 0 .1.1.1.1 0 .1.5 3.6.8 5.7l.7-8.1c0-.1.1-.1.1-.1.1 0 .1 0 .1.1 0 0 .3 2.3.6 4.5.1 1.1.3 2.3.4 3.1 0 .2 0 .3.1.4.2-2 .7-6.1.8-6.9v-.2h.1l.1.1c0 .1.5 2 .9 3.3.2-.3.5-.7 1.2-.7h3.1c.5 0 1 .5 1.3.7l.9-3.3.1-.1s.1 0 .1.1l.9 3.3.3-.5s.1-.1.1 0c0 0 .1 0 .1.1l1.5 4.7.8-2.3s0-.1.1-.1h.1l.8 1.1.8-2.6.1-.1s.1 0 .1.1l.9 4.2 1-1.4.1-.1s.1 0 .1.1l.8 2.9.7-3 .1-.1c.1 0 .1 0 .1.1l1.1 4.3.8-2.4.1-.1s.1 0 .1.1l.9 3.4.9-2 .1-.1s.1 0 .1.1l.8 2.9.9-3.9s0-.1.1-.1.1 0 .1.1l.8 4.4.8-6.4c0-.1.1-.1.1-.1.1 0 .1 0 .1.1l.9 6.9.8-13.2c0-.1 0-.1.1-.1 0 0 .1 0 .1.1l.9 4.7.7-7c0-.1 0-.1.1-.1 0 0 .1 0 .1.1l1.2 3.1.6-2.4s0-.1.1-.1h.1l1.1 1.5h1.9c.1 0 .1 0 .1.1l1 4.6.5-3c0-.1.1-.1.1-.1.1 0 .1 0 .1.1l.9 3.5h33.9c.1 0 .1 0 .1.1s-.1.1-.1.1h-33.9s-.1 0-.1-.1l-.8-3-.5 3c0 .1-.1.1-.1.1-.1 0-.1 0-.1-.1l-1.1-5.1h-2l-1-1.4-.6 2.5-.1.1s-.1 0-.1-.1l-1.1-3-.7 7.3c0 .1 0 .1-.1.1s-.1 0-.1-.1l-.9-4.6-.8 13.6c-.2 0-.2.1-.3.1z"/><path fill="#01A699" d="M38.4 24.5c-.2 0-.4-.2-.4-.4 0-1.3-.2-8.6-.4-14.6l-.6 8.3c0 .2-.2.4-.5.4-.2 0-.4-.2-.4-.4v-16.4h-11.2c-.2 0-.4-.2-.4-.4s.2-.4.4-.4h11.6c.2 0 .4.2.4.4v5l.4-5.1c0-.2.2-.4.4-.4s.4.2.4.4c0 .1 0 1.6.1 3.7l.1-3.6c0-.2.2-.4.4-.4s.4.2.5.4l.8 7.1.4-7.1c0-.2.2-.4.4-.4s.4.1.5.3l1 2.5.9-2.4c.1-.2.3-.3.4-.3.2 0 .4.2.4.3l1.7 8.3 1.3-8.3c0-.2.2-.4.4-.4s.4.2.4.4l.6 5.4 1-4.9c0-.2.2-.4.4-.4s.4.2.4.4l1.1 4.5.9-5c0-.2.2-.3.4-.4.2 0 .4.1.5.2l.7 1.3.6-1.2c.1-.2.2-.2.4-.2h3.4c.2 0 .4.2.4.4l.8 5.9v-6c0-.2.2-.4.4-.4h12.1c.2 0 .4.2.4.4s-.2.4-.4.4h-11.7v12.2c0 .2-.2.4-.4.4s-.4-.2-.5-.4l-1.6-12.1h-2.7l-.8 1.7c-.1.1-.2.2-.4.2s-.3-.1-.4-.2l-.5-1-1.1 6.1c0 .2-.2.4-.4.4s-.4-.1-.4-.4l-1-4.5-1.1 5.5c0 .2-.2.4-.5.3-.2 0-.4-.2-.4-.4l-.6-5-1.3 7.5c0 .2-.2.4-.4.4s-.4-.1-.4-.4l-1.9-9.1-.8 2.1c-.1.2-.2.3-.4.3s-.3-.1-.4-.3l-.6-1.7-.6 10.6c0 .2-.2.4-.4.4s-.4-.2-.4-.4l-.6-5.5-.3 15.9c-.1.3-.3.5-.5.5z"/><path fill="#61C6C5" d="M58 13.2c-.3 0-.6-.2-.8-.5l-1.3-2.1c0-.1-.1-.1-.1-.1-.1 0-.1 0-.2.1l-.7.7c-.3.3-.6.4-.9.4-.3 0-.6-.2-.8-.4l-.8-1.1c-.1-.1-.5-.2-.8 0l-.3.2c-.7.4-1.5.3-1.9-.2l-1.4-1.9c0-.1-.1-.1-.1-.1s-.1 0-.1.1l-.8 1.1c-.2.3-.5.4-.8.4-.3 0-.6-.2-.8-.5l-1.6-2.3-.1-.1c-.1 0-.2 0-.3.1l-1.2 1.1c-.5.5-1.4.5-2 .1l-.4-.2c-.3-.2-1-.3-1.5 0-.6.5-1.2.7-2 .7h-20.8c-.2 0-.4-.2-.4-.4s.2-.4.4-.4h20.9c.6 0 1-.1 1.5-.5.8-.6 1.8-.4 2.5-.1l.4.2c.3.2.8.1.9 0l1.2-1.1c.3-.3.6-.4 1-.3.3 0 .6.2.7.5l1.4 2.2.1.1s.1 0 .1-.1l.8-1.1c.2-.3.5-.4.8-.4.3 0 .6.2.8.4l1.4 1.8c.1.1.5.2.7 0l.3-.2c.7-.3 1.6-.2 2 .3l.8 1.1c0 .1.1.1.2.1s.2 0 .2-.1l.7-.7c.3-.3.6-.4.9-.4.3 0 .6.2.7.5l1.3 2.1.1.1.1-.1 1-1.8c.1-.1.3-.5.7-.6.4-.1.6.2.8.3l.1.1h39.2c.2 0 .4.2.4.4s-.2.4-.4.4h-39.3c-.3 0-.4-.2-.6-.3v.1l-1.1 1.8c-.2.4-.5.6-.8.6z"/><path fill="#01A699" d="M77.4 72.7c-.1 0-.4-.1-.6-.5l-1.5-3.8-1 2.6c-.2.4-.5.5-.6.5-.1 0-.4 0-.7-.5l-1.3-2.8-.9 1.9c-.1.3-.4.5-.6.5-.3 0-.5-.1-.7-.4l-1.3-1.9-.9 3.1c0 .5-.3.6-.4.6-.1 0-.5 0-.7-.4l-1.4-2.6-1 2.8c-.2.5-.5.5-.6.5-.1 0-.4 0-.6-.5l-1.8-4.3h-.1c-.1 0-.2 0-.5.1-.6.2-1.5.4-2.2.4-.7 0-1.8 0-2.5-.1h-.2c-.6 0-1 .1-1 .2l-1 2.3c-.1.3-.3.4-.6.5-.3 0-.6-.1-.8-.4l-1.2-1.6-1 2.9c-.2.5-.5.5-.6.5-.1 0-.4 0-.6-.5l-1.5-3.5-1 1.9c-.1.3-.4.5-.7.5-.3 0-.5-.2-.7-.4l-1.2-2.2-.1.1c-.4.4-1.3.6-2 .6h-.7c-.6 0-1.2.2-1.3.3l-.5.6c-.2.2-.5.4-.8.4-.3 0-.5-.2-.7-.4l-1.1-1.6c-.1-.1-.2-.1-.3-.1-.4.2-1.2.3-1.9.3h-19.7c-.2 0-.4-.2-.4-.4s.2-.4.4-.4h19.7c.6 0 1.3-.2 1.6-.3.6-.3 1.1 0 1.4.4l1 1.4h.1l.5-.6c.4-.4 1.3-.7 2-.7h.7c.6 0 1.2-.2 1.4-.4.2-.2.5-.4.8-.3.3 0 .5.2.6.4l1.1 2 1-2c.2-.4.5-.5.7-.5.1 0 .4.1.6.5l1.4 3.3.9-2.6c.1-.3.3-.5.6-.5s.6.1.8.4l1.3 1.6 1-2.2c.2-.4.7-.8 1.9-.7h.2l2.4.1c.6 0 1.5-.2 2-.3.9-.3 1.4 0 1.6.4l1.6 3.8.9-2.7c.2-.4.5-.5.6-.5.1 0 .5 0 .7.4l1.4 2.5.9-3c.1-.4.4-.5.5-.5.1 0 .5 0 .7.4l1.3 2 .9-2c.2-.4.5-.5.6-.5.1 0 .4 0 .6.5l1.3 2.7 1-2.7c.2-.5.5-.5.6-.5.1 0 .4.1.6.5l1.4 3.6 1-3.6c.1-.5.4-.5.6-.5.1 0 .4 0 .7.5l1.3 2.7.9-2.7c.1-.2.2-.4.5-.5.3-.1.8-.1 1.2.1l.6.3c.3.2.9.1 1.1 0 .5-.3 1.4-.5 2.2-.5h.1c.4 0 .6-.1.8-.2.2-.1.5-.2.8-.2.3 0 .8.1 1.1.7l1.3 2.1 1-2c.1-.3.4-.4.6-.5.3 0 .5.1.7.4l.2.3c.1.1.2.3 1.2.3h20.5c.2 0 .4.2.4.4s-.2.4-.4.4h-20.3c-1 0-1.6-.2-1.9-.7l-.2.3-1 2c-.1.3-.4.4-.7.5-.3 0-.5-.1-.7-.4l-1.4-2.3c-.2-.3-.3-.3-.4-.3-.2 0-.3 0-.5.1-.3.1-.6.2-1.2.2h-.1c-.6 0-1.4.2-1.7.4-.5.3-1.4.4-2 .1l-.5-.3c-.2-.1-.4-.1-.4-.1l-1.1 3.2c-.1.4-.5.5-.6.5s-.4 0-.7-.5l-1.2-2.6-1 3.7c-.1.5-.4.5-.6.5z"/><path fill="#61C6C5" d="M55.6 68.7c-.2 0-.4-.1-.4-.4l-1.2-6h-1.1c-.2 0-.4-.1-.4-.3l-.9-2.2-1 6.2c0 .2-.2.4-.4.4s-.4-.2-.4-.4l-1.2-9.1-1 6.8c0 .2-.1.3-.3.4-.2.1-.3 0-.5-.1-.1-.1-.2-.2-1.3-10.5l-.7 8.5c0 .2-.2.4-.4.4s-.4-.2-.4-.4l-1.5-13.2-1.9 13.2c0 .2-.2.4-.4.4s-.4-.1-.5-.3l-2.7-11.2v11.2c0 .1 0 .2-.1.3-.1.1-.2.1-.3.1h-25.1c-.2 0-.4-.2-.4-.4s.2-.4.4-.4h24.7v-14.5c0-.2.2-.4.4-.4s.4.1.5.3l3 12.5 1.9-14.3c0-.2.2-.4.4-.4s.4.2.4.4l1.4 12.3.7-8.7c0-.2.2-.4.4-.4s.4.2.4.4c.4 3.6.9 8.4 1.3 11.5l1-6.7c0-.2.2-.4.4-.4s.4.2.4.4l1.2 9 .6-4.5c0-.2.2-.3.4-.4.2 0 .4.1.5.3l1.4 3.4h1.2c.2 0 .4.1.4.4l.8 3.8 1.2-9.7c0-.2.2-.4.4-.4s.4.1.4.4l1.1 6 1-2c.1-.2.3-.3.4-.2.2 0 .3.2.4.3l.7 3.1.4-2.5c0-.2.2-.4.4-.4s.4.1.5.3l1.5 5 1.1-2.9c.1-.2.2-.3.4-.3s.3.1.4.3l.9 2.3.9-2.6c.1-.2.2-.3.4-.3s.4.1.4.3l1 2.9 1-2.5c.1-.2.2-.3.4-.3s.3.1.4.2l.9 1.8 1.2-1.7c.1-.1.2-.2.3-.2.1 0 .3 0 .4.1l1.4 1.6.9-1.9c.1-.1.2-.2.4-.2s.3.1.4.2l1 1.4.9-1.6c.1-.2.3-.2.4-.2.2 0 .3.1.4.3l1.1 3.9.9-3.9c0-.2.1-.3.3-.3.1 0 .3 0 .4.1l1.6 1.4 1.2-1.5c.1-.1.3-.2.4-.2.2 0 .3.1.3.3l1 2.8.8-4.2c0-.2.2-.3.4-.4.2 0 .4.1.5.2l1 1.7.4-5.5c0-.2.2-.4.4-.4s.4.1.5.3l1.5 7.2 1-5.9c0-.2.2-.3.4-.4.2 0 .4 0 .5.2l1.4 2.3v-1.4c0-.2.2-.4.4-.4h34.8c.2 0 .4.2.4.4s-.2.4-.4.4h-34v2.5c0 .2-.1.4-.3.4-.2.1-.4 0-.5-.2l-1.6-2.6-1.2 7.1c0 .2-.2.4-.4.4s-.4-.1-.4-.4l-1.4-6-.2 3.6c0 .2-.1.4-.3.4-.2 0-.4 0-.5-.2l-1.2-2-.8 4.7c0 .2-.2.3-.4.4-.2 0-.4-.1-.4-.3l-1.3-3.6-1 1.2-.3.2c-.1 0-.2 0-.3-.1l-1.4-1.2-1.2 4.8c0 .2-.2.3-.4.3s-.4-.1-.4-.3l-1.3-4.5-.9 1.4c-.1.1-.2.2-.4.2s-.3-.1-.4-.2l-1-1.4-.9 1.8c-.1.1-.2.2-.3.2-.1 0-.3 0-.4-.1l-1.5-1.7-1.3 1.8c-.1.1-.2.2-.4.2s-.3-.1-.4-.2l-.8-1.6-1 2.7c-.1.2-.2.3-.4.3s-.3-.1-.4-.3l-1-2.9-.9 2.5c-.1.2-.2.3-.4.3s-.3-.1-.4-.3l-.8-2.3-1.2 3c-.1.2-.2.3-.4.3s-.3-.1-.4-.3l-1.3-4.3-.4 2.8c0 .2-.2.4-.4.4s-.4-.1-.4-.3l-1-4.1-1.1 2.1c-.1.2-.3.3-.5.2-.2 0-.3-.2-.4-.4l-.8-4.5-1.2 9.5c-.1.2-.2.3-.5.3z"/><path fill="#002D26" d="M36.4 72.9h-16.9c-.1 0-.1-.1-.1-.1 0-.1 0-.1.1-.1h16.8l.1-2.6c0-.1 0-.1.1-.1 0 0 .1 0 .1.1l1.2 2.3.5-1.1.1-.1s.1 0 .1.1l.5 1.1 1.3-2.9.1-.1s.1 0 .1.1l.8 2.9 1.1-3.2.1-.1s.1 0 .1.1l.9 3.5h38.1l1.5-1.6h.2l1.5 1.6h8.6c.1 0 .1 0 .1.1s0 .1-.1.1h-8.799999999999999l-1.4-1.6-1.5 1.6h-38.4s-.1 0-.1-.1l-.8-3.2-1.1 3.2-.1.1s-.1 0-.1-.1l-.8-2.9-1.3 2.7-.1.1s-.1 0-.1-.1l-.5-1.1-.5 1.1-.1.1s-.1 0-.1-.1l-1.1-2.1v2.3l-.1.1z"/><path fill="#067D87" d="M89.1 58.4c-.2 0-.4-.2-.4-.4 0-.1-.4-6.2-.7-12.4l-.4 6.9c0 .2-.2.4-.4.4s-.4-.2-.5-.4l-.5-4.1-.5 5.6c0 .2-.2.4-.4.4s-.4-.2-.4-.4l-.8-5-.5 2c0 .2-.2.3-.4.3s-.4-.1-.4-.3l-.4-1.3-.7 4.5c0 .2-.2.4-.4.4s-.4-.2-.4-.4l-.8-6.2-.3 1c-.1.2-.2.3-.4.3s-.4-.1-.4-.3l-.7-3-.4 1.7c0 .2-.2.3-.4.3s-.4-.1-.4-.3l-.7-2.3-.5.9c-.1.2-.3.2-.4.2-.2 0-.3-.2-.4-.3l-.7-2.9-.4 1.3c-.1.2-.2.3-.4.3s-.3-.1-.4-.2l-.4-.6-.6 1.7c-.1.2-.2.3-.4.3s-.4-.1-.4-.3l-1.4-4.2c-.1.1-.3.2-.4.1-.2 0-.3-.2-.3-.3l-.6-3-.6 3c0 .2-.2.3-.3.3-.2 0-.3 0-.4-.1-.3-.3-.8-.7-1-.7h-3.3c-.6 0-.8.6-.8.6-.1.2-.3.3-.4.3-.2 0-.4-.1-.4-.3l-.3-1-.7 11.7c0 .2-.2.4-.4.4s-.4-.2-.4-.4l-.8-8.8-.9 2.4c0 .2-.2.4-.4.4s-.4-.1-.4-.3c-.2-1.1-.4-1.9-.6-2.5-.2 1-.4 2.2-.6 3.1 0 .2-.2.4-.4.4s-.4-.2-.4-.4l-.6-4.5-.3 2.7c0 .2-.2.4-.4.4s-.4-.1-.4-.3c0 0-.1-.6-.4-2-.1-.3-.2-.6-.4-.7-.2-.1-.4-.1-.4-.1h-8.4c-.2 0-.4-.2-.4-.4l-.3-2.4-.8 5.3c0 .2-.2.4-.4.4s-.4-.1-.4-.3l-.6-2.3-.5 3.4c0 .2-.2.4-.4.4s-.4-.2-.4-.4l-.7-3.7-.6 3c0 .2-.2.4-.4.4s-.4-.2-.4-.4l-.7-3.8v.1c0 .2-.2.4-.4.4h-32.9c-.2 0-.4-.2-.4-.4s.2-.4.4-.4h32.4v-4.9c0-.2.2-.4.4-.4s.4.1.5.4l1 6 .4-2.9c0-.2.2-.4.4-.4s.4.1.4.4l.7 3.8.4-2.9c0-.2.2-.4.4-.4s.4.1.4.3l.6 2.3.9-6.2c0-.2.2-.4.4-.4s.4.2.4.4l.7 5.1h7.9c.2 0 .6-.1.9.2.2.2.4.4.6.7l.5-3.6c0-.2.2-.4.4-.4s.4.2.4.4l.6 5c.2-1.2.4-2 .5-2.4v-.1c.1-.5.2-.5.5-.4.2 0 .4.2.4.4 0 .1.2 1.1.5 2.2l.5-3.7c0-.2.2-.4.4-.4s.4.2.4.4l.7 7.1.6-8.8c0-.2.2-.4.4-.4s.4.1.5.3l.7 2.8c.3-.2.6-.4 1-.4h3.6c.4 0 .8.2 1.1.4l.9-4.5c0-.2.2-.4.4-.4s.4.1.4.4l.8 4.3c.1-.1.2-.1.3-.1.2 0 .3.1.4.3l1.2 3.8.5-1.2c.1-.2.2-.3.4-.3s.3.1.4.2l.4.6.7-2c.1-.2.2-.3.4-.3s.4.1.4.3l.8 3.4.5-.8c.1-.2.3-.2.4-.2.2 0 .3.1.4.3l.5 1.7.4-1.8c0-.2.2-.3.4-.3s.4.1.4.3l.8 3.3.5-1.4c.1-.2.3-.3.5-.3s.4.2.4.4l.6 4.9.5-3.4c0-.2.2-.4.4-.4s.4.1.4.3l.4 1.6.6-2.6c0-.2.2-.4.4-.3.2 0 .4.2.4.4l.5 3.6.5-5.7c0-.2.2-.4.4-.4s.4.2.4.4l.4 3.5.6-9.8c0-.2.2-.4.4-.4s.4.2.4.4c.2 2.8.4 6.7.6 10.3.2-4.8.3-10.4.5-14.3 0-.2.2-.4.4-.4s.4.2.5.4l.8 9 .4-8.1c0-.2.2-.4.4-.4s.4.2.4.4l.7 7.4.3-4.3c0-.2.2-.4.4-.4s.4.2.4.4l1.2 9.7.1-6.6c0-.2.2-.4.4-.4s.4.1.5.3l.8 2h44.9c.2 0 .4.2.4.4s-.2.4-.4.4h-44.8c-.2 0-.3-.1-.4-.3l-.1-.2-.1 10.8c0 .2-.2.4-.4.4s-.4-.2-.5-.4l-1.4-11.8-.4 5.2c0 .2-.2.4-.4.4s-.4-.2-.4-.4l-.6-6.4-.4 8.5c0 .2-.2.4-.4.4s-.4-.2-.4-.4l-.7-8c0 1.4-.1 2.9-.1 4.4-.1 3-.2 6-.3 8.2 0 1.1-.1 2.1-.1 2.7-.2 1.3-.2 1.3-.7 1.3z"/><path fill="#01A699" d="M120.2 81.8c-.3 0-.4-.2-.4-.4l-.5-5.5-1.7 3.8c-.1.2-.3.3-.4.3-.2 0-.3-.2-.4-.3l-.8-4-.9 2.4c-.1.2-.2.3-.4.3s-.3-.1-.4-.3l-1.1-2.9-1.1 3.3c-.1.2-.2.3-.4.3s-.4-.1-.4-.3l-.4-1.3-1 3c-.1.2-.2.3-.4.3s-.3-.1-.4-.3l-1.6-4-1.1 2.7c-.1.2-.2.3-.4.3s-.3-.1-.4-.3l-.9-3.2c-.3.8-.6 1.5-.6 1.7 0 .1 0 .1-.1.2s-.2.2-.4.2-.3-.1-.4-.2c0 0 0-.1-.1-.1-.1-.2-.5-.8-.9-1.3l-1.2 2c-.1.2-.3.2-.5.2s-.3-.2-.4-.3l-.6-3.3-.9.9c-.2.2-.4.2-.6 0l-1-.8v1.1c0 .2-.2.4-.4.4h-9.7c-.2 0-.4-.2-.4-.4s.2-.4.4-.4h9.3v-1.7c0-.2.1-.3.2-.4.2-.1.3-.1.5 0l1.4 1.1 1.2-1.2c.1-.1.3-.2.4-.1.2 0 .3.2.3.3l.6 3 1-1.6c.1-.1.2-.2.4-.2.1 0 .3.1.4.2.4.5.7.9.9 1.2.2-.5.5-1.2.9-2.2.1-.2.2-.3.4-.3s.3.1.4.3l.9 3.3 1.1-2.5c.1-.2.2-.3.4-.3s.3.1.4.3l1.6 3.9 1.1-3.2c.1-.2.3-.3.4-.3.2 0 .4.1.4.3l.4 1.3 1-3.2c.1-.2.2-.3.4-.3s.4.1.4.3l1.1 3 1-2.7c.1-.2.2-.3.4-.3s.4.2.4.3l.9 4.2 1.9-4.1c.1-.2.3-.3.5-.3s.3.2.4.4l.5 5 1.7-5.1c.1-.2.2-.3.4-.3s.4.1.4.3l1.1 4c.5-.8 1.3-1.6 2.6-1.6h5.4c1.2 0 2.2.6 2.8 1.8 1.1-2.4 2.4-5.4 2.5-5.7.1-.3.1-.3.3-.3.2 0 .3 0 .5.1.1.1.1.1.1.4v5.3h9.5c.2 0 .4.2.4.4s-.2.4-.4.4h-9.9c-.2 0-.4-.2-.4-.4v-3.6c-.2.4-.4.8-.6 1.3-.7 1.7-1.5 3.3-1.5 3.3-.1.2-.2.3-.4.3s-.3-.1-.4-.3v-.1c-.2-.8-.8-2.1-2.3-2.1h-5.4c-1.8 0-2.2 2.1-2.2 2.1 0 .2-.2.3-.4.4-.2 0-.4-.1-.4-.3l-1.1-3.8-1.9 5.8c-.6.3-.8.4-1 .4z"/></svg>