<svg xmlns="http://www.w3.org/2000/svg" viewBox="0 0 101.2 85" enable-background="new 0 0 101.2 85"><path fill="#010101" d="M99 79.5v-4.2c1.2-.2 2.2-1.2 2.2-2.5 0-1.4-1.1-2.5-2.5-2.5-1.3 0-2.3 1-2.5 2.2h-34c-.2-1.2-1.1-2.1-2.3-2.2v-8.1l.1-.3c1.3-.1 2.3-1.2 2.3-2.5 0-1.1-.7-2-1.7-2.4v-17.8c1-.3 1.7-1.3 1.7-2.4 0-1.4-1.1-2.5-2.5-2.5h-.1c-1.3-4.2-4.7-7.5-8.9-8.7v-.2c0-1.4-1.1-2.5-2.5-2.5-1.3 0-2.3.9-2.5 2.2h-19.7c-.1-1.1-1-2-2.2-2.2v-17.4c1.2-.2 2.2-1.2 2.2-2.5 0-1.4-1.1-2.5-2.5-2.5-1.3 0-2.3.9-2.5 2.2h-15.8c-.2-1.3-1.2-2.2-2.5-2.2-1.4 0-2.5 1.1-2.5 2.5 0 1.2.8 2.1 1.9 2.4v63c-1.1.3-1.9 1.3-1.9 2.4 0 1.4 1.1 2.5 2.5 2.5 1.2 0 2.1-.8 2.4-1.9h16c.3 1.1 1.3 1.9 2.4 1.9 1.2 0 2.1-.8 2.4-1.9h19.8c.3 1.1 1.3 1.9 2.4 1.9.7 0 1.3-.3 1.7-.7l8 7.6c-.4.4-.7 1-.7 1.7 0 1.4 1.1 2.5 2.5 2.5.8 0 1.5-.4 2-1h35c.5.6 1.2 1 2 1 1.4 0 2.5-1.1 2.5-2.5 0-1.2-1-2.3-2.2-2.4zm-48.6-9.8c-.3-.5-.7-1-1.3-1.2l4.9-14.4 3.8 3.6c-.4.4-.6 1-.6 1.6 0 1 .6 1.9 1.4 2.3-1.1 3.9-4.2 7-8.2 8.1zm-25.2-.8l-.3-.2 9.7-18 3.8 5.7-13.2 12.5zm21.5-41.4c.1.1.2.1.2.2l-2.2 4.1-1.7-.5 3.7-3.8zm-2.4 4.9l-4.5 8.2-3.3-3.1 5.8-5.8 2 .7zm13.9 6.4c.2.2.4.3.7.4l-4.9 14.5-5.4-5v-.8l9.6-9.1zm-10.3 29.6l-.6.1-7-12.9 7.6-7.1v19.9zm.6 0v-19.4l5.3 5-4.9 14.5c-.1-.1-.2-.1-.4-.1zm-8.5-13.4l-3.8-7.1 3.8-7 7.5 7-7.5 7.1zm-4-7.3l-3.4-6.2 3.8-3.8 3.3 3.1-3.7 6.9zm-12.3 20.6v-17.9l6.4-6.4 4.4 6.5-9.8 18.1c-.3-.2-.7-.2-1-.3zm12.3-31.1l-3.7 3.6-7.3-13.4.3-.2 10.7 10zm-12.5-9.2v5.7l-1.7-2.6 1.4-3.1h.3zm.2 0c.3 0 .5-.1.8-.2l7.4 13.5-1.9 1.9-6.3-9.2v-6zm6 15.5l-6.1 6v-15.1l6.1 9.1zm.6.4l1.9-1.9 3.5 6.4-1 1.9-4.4-6.4zm5.8-6.8l-10.6-10 .4-.6 15.8 5-5.6 5.6zm-14.1-9.7l-1.1 2.4-3.5-5.3 1.2-4 3.1 3.4c-.4.4-.6 1-.6 1.6 0 .8.3 1.5.9 1.9zm-5.1-3.6l-12.4-18.5 13.5 14.7-1.1 3.8zm-12.8-18.7l12.7 19-3.6 11.7-9.4-30.5.3-.2zm13.1 19.7l3.5 5.3-5.6 12.2-1.6-5.3 3.7-12.2zm-2.4 18.4l-9.5 20.6 7.9-25.8 1.6 5.2zm-10.3 25.4l10.8-23.6 3 9.8-13.8 13.8zm11.3-24.4l5.9-12.8 1.8 2.8v15.6l-4.6 4.6-3.1-10.2zm7.7 6.5v17.7h-.3l-4.1-13.4 4.4-4.3zm11.2-.2l1-1.9 3.7 6.8-.9.8-3.8-5.7zm5.1 5.6l5.8 10.8-6.7-10 .9-.8zm18.2 1.5l-3.9-3.7 5-14.6h.2v17.6c-.6.1-1 .3-1.3.7zm-.3-19.3l-9.2 8.7v-13.3l8.7 2.8v.4c0 .5.2 1 .5 1.4zm-9.8 9.3l-.3.3-7.6-7.1 4.5-8.3 3.3 1v14.1zm-3-15.8l2.2-4.1c.2.1.5.2.8.2v4.8l-3-.9zm1.3-4.8l-4 4-16.2-5.1v-.1h19.6c.2.5.3.9.6 1.2zm-24.1-3.6l-3.4-3.6 4.4-14.3h.1v17.5c-.4.1-.7.2-1.1.4zm.4-18.1l-4.3 14-13.5-14.7c.3-.4.5-.8.6-1.3h15.8c.1.9.7 1.6 1.4 2zm-9.7 31.6l-9.3 30.7v-61.3l9.3 30.6zm-8 32.4l13.8-13.8 4 13c-.7.3-1.2.9-1.4 1.6h-16c-.1-.2-.2-.5-.4-.8zm20.8.1l13.2-12.4 7.9 11.8c-.4.3-.8.8-.9 1.3h-19.8c-.1-.2-.2-.5-.4-.7zm25 2l6.6 1.1v.3c0 1.2.8 2.1 1.8 2.4v4.3c-.4.1-.7.3-1 .6l-8-7.6c.4-.3.6-.7.6-1.1zm9.8 8.1v-4.3c.8-.2 1.4-.8 1.7-1.5l16.2 3.8-16.1 3.8c-.3-.9-.9-1.5-1.8-1.8zm2.2-6.4h33.6v.1l-16.5 3.9-17.1-4zm33.7.4c.3.9 1.1 1.7 2.1 1.8v4.2c-.9.1-1.7.7-2 1.6l-16.1-3.8 16-3.8zm-36.7-3.2c-1.1.1-2.1.9-2.3 2l-6.6-1.1v-.2c4.1-1.1 7.3-4.1 8.9-7.9v7.2zm-.6-35.8c-.7.2-1.2.7-1.5 1.3l-9-2.8v-5c1-.1 1.7-.8 2-1.7 4.1 1.1 7.2 4.2 8.5 8.2zm3.2 47.7v-.6000000000000001l16.5-3.9 17.4 4.1v.4h-33.9z"/></svg>