<svg xmlns="http://www.w3.org/2000/svg" viewBox="0 0 97.4 83.9" enable-background="new 0 0 97.4 83.9"><path fill="#FFE8B6" d="M41.2 49.9c-8.7 0-12.5 6.4-12.5 12 0 4.6 2.1 8.4 3.2 10h17.8v-20.9c-2.3-.6-5.2-1.1-8.5-1.1z"/><path fill="#FFC31A" d="M41.3 24.1h-16l-12.3-24.1h-12.8v71.9h31.8c-1.1-1.6-3.2-5.3-3.2-10 0-5.6 3.8-12 12.5-12s14.6 3.5 14.6 3.5v-14.7c-.1-8.3-6-14.6-14.6-14.6zM55.8 71.9h41.5v12h-41.5z"/><path fill="#010101" d="M37.2 30.7s-11.3-.1-13.2-.1c-14.4 0-20.1-10.2-20.1-10.2 0 2.7.1 13.5 6.4 17-3 .3-6.1-.9-6.1-.9 2.5 7.8 13 9.1 18.3 9.1h18.7c3.3 0 6.2.5 8.5 1.1v-5.5c0-7-4.3-10.5-12.5-10.5z"/><path fill="#fff" d="M43.9 40.2h-4.4l-5-1.1v-1.1h9.4z"/></svg>