<?xml version="1.0" encoding="utf-8"?>
<!-- Generator: Adobe Illustrator 17.1.0, SVG Export Plug-In . SVG Version: 6.00 Build 0)  -->
<!DOCTYPE svg PUBLIC "-//W3C//DTD SVG 1.1//EN" "http://www.w3.org/Graphics/SVG/1.1/DTD/svg11.dtd">
<svg version="1.1" id="Layer_1" xmlns="http://www.w3.org/2000/svg" xmlns:xlink="http://www.w3.org/1999/xlink" x="0px" y="0px"
	 viewBox="0 0 94.6 36.4" enable-background="new 0 0 94.6 36.4" xml:space="preserve">
<path d="M41.8,14c-2.2,0-4.4,1.6-4.4,1.6v-1c0-0.2-0.1-0.3-0.3-0.3h-2.8c-0.2,0-0.4,0.1-0.4,0.3v21.5c0,0.2,0.1,0.4,0.3,0.4h2.8
	c0.2,0,0.3-0.1,0.3-0.4V17.7c0,0,1.3-0.8,2.9-0.8c1.5,0,2.7,0.7,2.7,2.3c0,1.1,0,17,0,17c0,0.2,0.1,0.4,0.4,0.4h2.8
	c0.2,0,0.3-0.2,0.3-0.4V18.2C46.4,15.5,44.7,14,41.8,14z"/>
<path d="M63.4,3.2h-2.8c-0.2,0-0.4,0.1-0.4,0.3v10.8c-1.1-0.4-2-0.6-2.8-0.6c-4.5,0-7.6,4.3-7.6,12.4c0,7,3,10.8,6.9,10.8
	c1.7,0,3-0.9,4-1.8l0.6,1c0.1,0.2,0.2,0.2,0.4,0.2l1.6,0c0.2,0,0.3-0.1,0.3-0.4V3.5C63.7,3.3,63.6,3.2,63.4,3.2z M53.5,25.5
	c0-4.5,1.3-9,4.1-9c0.9,0,1.8,0.3,2.7,1v15.9c-0.7,0.4-1.5,0.7-2.5,0.7C54.8,34.1,53.5,30.6,53.5,25.5z"/>
<path d="M74,13.8c-4.6,0-6.9,6-6.9,12.5c0,6.8,3.3,10.6,7.4,10.6c1.8,0,3.7-0.7,4.9-1.4c0.2-0.1,0.2-0.2,0.2-0.4l-0.4-1.4
	c0-0.2-0.1-0.3-0.4-0.3c-0.1,0-1.6,0.4-3.1,0.4c-3.4,0-5-3-5-7c0-0.5,0-1,0-1s1.7,0.2,2.7,0.2H80v-1.8C80,17.5,77.6,13.8,74,13.8z
	 M73.8,23.4c-1,0-2.9,0.2-2.9,0.2s0-0.7,0.1-1.4c0.4-3.7,1.3-5.6,2.9-5.6c1.4,0,2.3,1.9,2.5,5.3c0,0.7,0,1.5,0,1.5H73.8z"/>
<path d="M28.7,16.6c-1-2-2.9-2.9-4.9-2.9c-1.3,0-3.4,0.5-4.8,1.1c-0.3,0.1-0.4,0.2-0.4,0.4c0,0.1,0.1,0.3,0.1,0.4l0.9,2
	c0.1,0.2,0.3,0.3,0.4,0.3c0.1,0,0.3-0.1,0.4-0.1c1.4-0.9,2.4-1.3,3.2-1.3c1,0,1.8,0.7,2.2,1.7c0.4,1,0.6,2.3,0.6,3.8
	c0,0.2,0,0.5,0,0.5c-0.9-0.5-2.4-0.8-3.1-0.8c-4,0-6.2,3.8-6.2,7.8c0,4.3,2.5,7.5,5.6,7.5c1.7,0,3.2-1,4.2-2.2c0,0,0.5,1.3,0.6,1.4
	c0.1,0.2,0.1,0.2,0.4,0.2l1.6,0c0.2,0,0.3-0.1,0.3-0.4V23.6C29.6,20.5,29.5,18.2,28.7,16.6z M26.2,33c-0.8,0.8-1.7,1.2-2.6,1.2
	c-0.9,0-1.5-0.4-2-1.1c-0.6-0.9-0.9-2.2-0.9-3.7c0-2.4,0.9-4.8,2.8-4.8c0.9,0,2,0.3,2.8,1V33z"/>
<path d="M94.6,14.3c-0.4,0-2.2,0-2.5,0c-0.3,0-0.4,0.1-0.5,0.3c-0.2,0.4-1.2,3.1-1.6,4.3c-0.3,0.8-1.1,3.1-1.1,3.1l-0.1,0
	c0,0-0.6-1.7-0.9-2.5c-0.3-0.7-1.6-4.3-1.8-4.7c-0.1-0.2-0.2-0.5-0.6-0.5c-0.5,0-2.4,0-2.7,0c-0.3,0-0.5,0.3-0.4,0.5
	c0.1,0.2,4.4,9.9,4.4,9.9s-4.6,10.9-4.8,11.1c-0.1,0.2,0,0.6,0.4,0.6c0.3,0,2,0,2.4,0c0.4,0,0.6-0.2,0.7-0.5
	c0.3-0.9,0.8-2.3,1.6-4.3c0.5-1.3,1.2-3.7,1.2-3.7h0.1c0,0,0.8,2.4,1.1,3.2c0.8,2,1.8,4.6,1.9,4.9c0.1,0.3,0.3,0.5,0.5,0.5
	c0.3,0,2.4,0,2.7,0c0.3,0,0.4-0.3,0.3-0.6c-0.3-0.6-2.9-6.8-4.6-10.8c0,0,4.6-10,4.7-10.3C95,14.5,95,14.3,94.6,14.3z"/>
<path fill="#FF0000" d="M19.7,0h-3.1c-0.3,0-0.4,0.1-0.5,0.3c0,0.2-4.7,14.2-5,15.3c-0.2,0.8-1,3.7-1.2,4.4l-1.6-4.4
	C7.9,14.6,4.1,4.2,4,3.8C4,3.5,3.8,3.3,3.4,3.3h-3C0.1,3.3-0.1,3.6,0,3.8c0.1,0.2,5.6,14.6,7.8,20.2v12.2c0,0.2,0.1,0.4,0.3,0.4H11
	c0.2,0,0.3-0.1,0.3-0.4V24.6V24C13.2,18.9,20,0.7,20,0.5C20.1,0.3,20.1,0,19.7,0z"/>
</svg>
