<?xml version="1.0" encoding="utf-8"?>
<!-- Generator: Adobe Illustrator 17.1.0, SVG Export Plug-In . SVG Version: 6.00 Build 0)  -->
<!DOCTYPE svg PUBLIC "-//W3C//DTD SVG 1.1//EN" "http://www.w3.org/Graphics/SVG/1.1/DTD/svg11.dtd">
<svg version="1.1" id="Layer_1" xmlns="http://www.w3.org/2000/svg" xmlns:xlink="http://www.w3.org/1999/xlink" x="0px" y="0px"
	 viewBox="285.3 398.6 95.3 37.9" enable-background="new 285.3 398.6 95.3 37.9" xml:space="preserve">
<g>
	<path fill="#ED1C24" d="M300.8,398.6h-5.1c-5,0-9.2,3.8-9.2,11.2c0,4.4,2.1,7.7,5.7,9.3l-6.8,12.3c-0.2,0.4,0,0.7,0.4,0.7h3.2
		c0.3,0,0.4-0.1,0.5-0.3l6.2-12.1h2.2v12.1c0,0.1,0.1,0.3,0.3,0.3h2.8c0.3,0,0.4-0.1,0.4-0.4v-32.7
		C301.3,398.8,301.1,398.6,300.8,398.6z M297.8,416.9H296c-3,0-5.8-2.1-5.8-7.5c0-5.6,2.7-7.9,5.4-7.9h2.3V416.9z"/>
	<path d="M317.5,409.7h-2.8c-0.2,0-0.4,0.2-0.4,0.3v8.5h-5.1v-8.5c0-0.2-0.1-0.3-0.3-0.3h-2.8c-0.2,0-0.4,0.1-0.4,0.3v21.7
		c0,0.2,0.1,0.4,0.3,0.4h2.8c0.2,0,0.3-0.1,0.3-0.4v-10.4h5.1v10.4c0,0.2,0.1,0.4,0.4,0.4h2.8c0.2,0,0.3-0.2,0.3-0.4v-21.7
		C317.8,409.9,317.7,409.7,317.5,409.7z"/>
	<path d="M380.6,430.7l-0.4-1.5c0-0.1-0.1-0.2-0.2-0.2c-0.2,0-1.4,0.5-3.2,0.5c-3.4,0-5-3.3-5-8.4c0-4.6,1.4-9.1,3.7-9.1
		c0.6,0,1.4,0.2,2.6,1.3c0.1,0.1,0.2,0.2,0.4,0.2c0.1,0,0.3-0.1,0.4-0.3l1.2-2c0.1-0.1,0.1-0.3,0.1-0.4c0-0.2-0.2-0.3-0.4-0.4
		c-1.8-0.9-3.1-1.1-4.1-1.1c-4.2,0-7.4,5-7.4,12.8c0,6.7,3.1,10.6,7.6,10.6c1.9,0,3.9-0.9,4.7-1.5
		C380.6,431.1,380.6,430.9,380.6,430.7z"/>
	<path d="M361.2,419.8l5.3-9.8c0.1-0.1,0-0.3-0.1-0.3h-2.6c-0.7,0-1,0.3-1.3,0.8l-4,8.4c-0.2,0.5-0.4,0.8-0.7,0.9V410
		c0-0.2-0.1-0.3-0.3-0.3h-2.9c-0.1,0-0.3,0.1-0.3,0.3v21.7c0,0.1,0.1,0.3,0.3,0.3h2.9c0.2,0,0.3-0.1,0.3-0.3v-11.2
		c0.1,0.1,0.2,0.2,0.3,0.4l5.1,10.4c0.3,0.5,0.7,0.7,1.3,0.7h2.9c0.2,0,0.2-0.2,0.1-0.3L361.2,419.8z"/>
	<path d="M335.7,429.3h-0.5c-0.7,0-0.8-0.3-0.8-0.8v-18.4c0-0.2-0.1-0.3-0.3-0.3h-8.9c-0.2,0-0.4,0.1-0.4,0.3v1.6
		c0,5.4-0.3,12.4-3.2,17.7h-1c-0.3,0-0.4,0.1-0.4,0.4c0,0,0,5.4,0,6.5c0,0.2,0.2,0.3,0.3,0.3h2.1c0.5,0,0.7-0.4,0.7-0.7v-3.7h9.5
		v4.1c0,0.2,0.1,0.3,0.3,0.3h2.3c0.3,0,0.5-0.2,0.5-0.7v-6.2C336,429.4,335.9,429.3,335.7,429.3z M330.9,429.3h-6.5
		c2.3-3.9,3.2-8.3,3.5-13.6c0.1-1.2,0.1-2.4,0.1-3.1h2.9L330.9,429.3L330.9,429.3z"/>
	<path d="M344.8,409.2c-4.8,0-6.9,6.1-6.9,12.7c0,6.7,3,10.8,7.5,10.8c2.2,0,4.1-0.8,5.1-1.5c0.2-0.1,0.2-0.2,0.2-0.4l-0.4-1.5
		c0-0.2-0.1-0.3-0.4-0.3c-0.2,0-1.5,0.5-3.3,0.5c-3.4,0-5-3-5-6.9c0-0.5,0-1,0-1s1.7,0.2,2.8,0.2h6.5v-1.9
		C350.8,412.9,348.3,409.2,344.8,409.2z M344.3,418.9c-1,0-2.6,0.2-2.6,0.2s0-0.7,0.1-1.4c0.4-3.8,1.3-5.7,2.9-5.7
		c1.4,0,2.3,2,2.5,5.4c0,0.7,0,1.5,0,1.5H344.3z"/>
</g>
</svg>
