<svg xmlns="http://www.w3.org/2000/svg" width="256" height="256" viewBox="0 0 97.285 97.285" class="detail convertSvgInline replaced-svg" display="block"><path d="M83.952 34.479l-33.896-33.894c-.781-.781-2.047-.781-2.828 0l-33.895 33.894c-.781.781-.781 2.047 0 2.828l9.03 9.031c.375.375.883.586 1.414.586.53 0 1.039-.211 1.414-.586l14.534-14.532v63.478c0 1.104.896 2 2 2h13.835c1.104 0 2-.896 2-2v-63.477l14.532 14.532c.75.75 2.078.75 2.828 0l9.031-9.031c.375-.375.586-.884.586-1.414.001-.53-.21-1.04-.585-1.415z"/></svg>