<?xml version="1.0" encoding="UTF-8"?>
<!-- Generator: Adobe Illustrator 16.0.0, SVG Export Plug-In . SVG Version: 6.00 Build 0)  -->
<!DOCTYPE svg PUBLIC "-//W3C//DTD SVG 1.1//EN" "http://www.w3.org/Graphics/SVG/1.1/DTD/svg11.dtd">
<svg version="1.1" id="Layer_1" xmlns="http://www.w3.org/2000/svg" xmlns:xlink="http://www.w3.org/1999/xlink" x="0px" y="0px" width="15px" height="15px" viewBox="0 0 15 15" enable-background="new 0 0 15 15" xml:space="preserve">
<g>
	<g>
		<path fill-rule="evenodd" clip-rule="evenodd" d="M15,13.003l-3.898-3.897c1.407-2.307,1.129-5.354-0.868-7.349    c-2.34-2.341-6.136-2.341-8.478,0c-2.34,2.341-2.34,6.137,0,8.478c1.996,1.996,5.042,2.274,7.349,0.867L13.003,15L15,13.003z     M3.186,8.825c-1.557-1.557-1.557-4.082,0-5.639c1.557-1.557,4.083-1.557,5.64,0c1.557,1.557,1.557,4.082,0,5.639    C7.268,10.382,4.742,10.382,3.186,8.825z"/>
	</g>
</g>
</svg>