<svg height="500" width="500" xmlns="http://www.w3.org/2000/svg"><path d="M316.642 142h-132.395c-10.618 0-20.247 8.365-20.247 18.984v176.996c0 10.62 9.629 20.021 20.247 20.021h132.395c10.621 0 19.358-9.401 19.358-20.021v-176.996c0-10.619-8.737-18.984-19.358-18.984zm-66.197 210.725c-4.607 0-8.341-3.734-8.341-8.341 0-4.607 3.734-8.341 8.341-8.341s8.341 3.734 8.341 8.341c0 4.607-3.734 8.341-8.341 8.341zm67.555-38.154c0 9.103-6.3 17.429-14.204 17.429h-106.7c-7.903 0-15.096-8.325-15.096-17.429v-140.939c0-9.101 7.193-15.632 15.096-15.632h106.7c7.904 0 14.204 6.531 14.204 15.632v140.939z"/></svg>