<svg height="500" width="500" xmlns="http://www.w3.org/2000/svg"><path d="M160.252 307.44h71.656v21.745c-29.056 2.84-44.011.156-51.833 12.388h139.851c-7.823-12.233-22.778-9.548-51.834-12.388v-21.745h71.655c10.77 0 19.499-8.73 19.499-19.499v-110.015c0-10.771-8.729-19.499-19.499-19.499h-179.495c-10.769 0-19.498 8.728-19.498 19.499v110.015c0 10.768 8.73 19.499 19.498 19.499zm-3.884-116.486c0-8.016 7.481-14.512 16.711-14.512h153.841c9.232 0 16.713 6.496 16.713 14.512v83.957c0 8.014-7.481 14.513-16.713 14.513h-153.841c-9.229 0-16.711-6.499-16.711-14.513v-83.957z"/></svg>