<svg height="500" width="500" xmlns="http://www.w3.org/2000/svg"><path d="M295.081 141h-90.73c-10.734 0-19.351 9.09-19.351 19.825v178.922c0 10.736 8.617 19.253 19.351 19.253h90.73c10.737 0 19.919-8.518 19.919-19.253v-178.922c0-10.735-9.182-19.825-19.919-19.825zm-45.365 213.653c-4.657 0-8.432-3.775-8.432-8.432s3.775-8.432 8.432-8.432 8.432 3.775 8.432 8.432-3.775 8.432-8.432 8.432zm46.284-38.569c0 9.202-5.915 16.916-13.906 16.916h-64.755c-7.989 0-13.339-7.714-13.339-16.916v-142.474c0-9.2 5.351-16.61 13.339-16.61h64.755c7.991 0 13.906 7.411 13.906 16.61v142.474z"/></svg>